<?xml version="1.0" encoding="UTF-8"?>
<svg id="Layer_2" data-name="Layer 2" xmlns="http://www.w3.org/2000/svg" viewBox="0 0 991.84 782.76">
  <defs>
    <style>
      .cls-1 {
        fill: #f5f5f1;
      }
    </style>
  </defs>
  <g id="Layer_1-2" data-name="Layer 1">
    <g>
      <g id="uuid-c4d05f02-6d6c-4bd2-910b-3eb86f0dce89" data-name="Layer 1-2">
        <g>
          <path class="cls-1" d="M33.75.65L.65,33.75c-.86.86-.86,2.27,0,3.13.43.43,1,.65,1.57.65s1.14-.22,1.57-.65L36.9,3.78c.86-.86.86-2.27,0-3.13-.86-.86-2.27-.86-3.13,0h-.01Z"/>
          <path class="cls-1" d="M83.81.65l-33.12,33.11c-.86.86-.86,2.27,0,3.13.43.43,1,.65,1.57.65s1.14-.22,1.57-.65L86.95,3.78c.86-.86.86-2.27,0-3.13-.86-.86-2.27-.86-3.13,0Z"/>
          <path class="cls-1" d="M133.88.65l-33.12,33.11c-.86.86-.86,2.27,0,3.13.43.43,1,.65,1.57.65s1.14-.22,1.57-.65L137.01,3.78c.86-.86.86-2.27,0-3.13-.86-.86-2.27-.86-3.13,0Z"/>
          <path class="cls-1" d="M183.94.65l-33.12,33.11c-.86.86-.86,2.27,0,3.13.43.43,1,.65,1.57.65s1.14-.22,1.57-.65L187.07,3.78c.86-.86.86-2.27,0-3.13-.86-.86-2.27-.86-3.13,0h0Z"/>
          <path class="cls-1" d="M233.99.65l-33.11,33.11c-.86.86-.86,2.27,0,3.13.43.43,1,.65,1.57.65s1.14-.22,1.57-.65L237.12,3.78c.86-.86.86-2.27,0-3.13-.86-.86-2.27-.86-3.13,0h0Z"/>
          <path class="cls-1" d="M284.05.65l-33.11,33.11c-.86.86-.86,2.27,0,3.13.43.43,1,.65,1.57.65s1.14-.22,1.57-.65L287.18,3.78c.86-.86.86-2.27,0-3.13-.86-.86-2.27-.86-3.13,0Z"/>
          <path class="cls-1" d="M334.11.65l-33.12,33.11c-.86.86-.86,2.27,0,3.13.43.43,1,.65,1.57.65s1.14-.22,1.57-.65L337.24,3.78c.86-.86.86-2.27,0-3.13-.86-.86-2.27-.86-3.13,0h0Z"/>
          <path class="cls-1" d="M384.17.65l-33.12,33.11c-.86.86-.86,2.27,0,3.13.43.43,1,.65,1.57.65s1.14-.22,1.57-.65L387.3,3.78c.86-.86.86-2.27,0-3.13-.86-.86-2.27-.86-3.13,0h0Z"/>
          <path class="cls-1" d="M434.23.65l-33.12,33.11c-.86.86-.86,2.27,0,3.13.43.43,1,.65,1.57.65s1.14-.22,1.57-.65L437.36,3.78c.86-.86.86-2.27,0-3.13-.86-.86-2.27-.86-3.13,0h0Z"/>
          <path class="cls-1" d="M452.74,37.54c.57,0,1.14-.22,1.57-.65L487.42,3.78c.86-.86.86-2.27,0-3.13-.86-.86-2.27-.86-3.13,0l-33.12,33.11c-.86.86-.86,2.27,0,3.13.43.43,1,.65,1.57.65h0Z"/>
          <path class="cls-1" d="M454.3,67.92c-.86-.86-2.27-.86-3.13,0s-.86,2.27,0,3.13l33.12,33.11c.43.43,1,.65,1.57.65s1.14-.22,1.57-.65c.86-.86.86-2.27,0-3.13l-33.12-33.11h0Z"/>
          <path class="cls-1" d="M404.24,67.92c-.86-.86-2.27-.86-3.13,0s-.86,2.27,0,3.13l33.12,33.11c.43.43,1,.65,1.57.65s1.14-.22,1.57-.65c.86-.86.86-2.27,0-3.13l-33.12-33.11h0Z"/>
          <path class="cls-1" d="M354.19,67.92c-.86-.86-2.27-.86-3.13,0s-.86,2.27,0,3.13l33.12,33.11c.43.43,1,.65,1.57.65s1.14-.22,1.57-.65c.86-.86.86-2.27,0-3.13l-33.12-33.11h0Z"/>
          <path class="cls-1" d="M304.13,67.92c-.86-.86-2.27-.86-3.13,0s-.86,2.27,0,3.13l33.12,33.11c.43.43,1,.65,1.57.65s1.14-.22,1.57-.65c.86-.86.86-2.27,0-3.13l-33.12-33.11h0Z"/>
          <path class="cls-1" d="M254.07,67.92c-.86-.86-2.27-.86-3.13,0-.86.86-.86,2.27,0,3.13l33.11,33.11c.43.43,1,.65,1.57.65s1.14-.22,1.57-.65c.86-.86.86-2.27,0-3.13l-33.11-33.11h0Z"/>
          <path class="cls-1" d="M204.01,67.92c-.86-.86-2.27-.86-3.13,0-.86.86-.86,2.27,0,3.13l33.11,33.11c.43.43,1,.65,1.57.65s1.14-.22,1.57-.65c.86-.86.86-2.27,0-3.13l-33.11-33.11h0Z"/>
          <path class="cls-1" d="M153.95,67.92c-.86-.86-2.27-.86-3.13,0-.86.86-.86,2.27,0,3.13l33.12,33.11c.43.43,1,.65,1.57.65s1.14-.22,1.57-.65c.86-.86.86-2.27,0-3.13l-33.12-33.11h0Z"/>
          <path class="cls-1" d="M103.9,67.92c-.86-.86-2.27-.86-3.13,0-.86.86-.86,2.27,0,3.13l33.12,33.11c.43.43,1,.65,1.57.65s1.14-.22,1.57-.65c.86-.86.86-2.27,0-3.13,0,0-33.12-33.11-33.12-33.11Z"/>
          <path class="cls-1" d="M53.84,67.92c-.86-.86-2.27-.86-3.13,0-.86.86-.86,2.27,0,3.13l33.12,33.11c.43.43,1,.65,1.57.65s1.14-.22,1.57-.65c.86-.86.86-2.27,0-3.13l-33.12-33.11Z"/>
          <path class="cls-1" d="M3.78,67.92c-.86-.86-2.27-.86-3.13,0-.86.86-.86,2.27,0,3.13l33.12,33.11c.43.43,1,.65,1.57.65s1.14-.22,1.57-.65c.86-.86.86-2.27,0-3.13L3.78,67.92Z"/>
          <path class="cls-1" d="M33.75,135.2L.65,168.31c-.86.86-.86,2.27,0,3.13.43.43,1,.65,1.57.65s1.14-.22,1.57-.65l33.12-33.12c.86-.86.86-2.27,0-3.13-.86-.86-2.27-.86-3.13,0h-.01Z"/>
          <path class="cls-1" d="M83.81,135.2l-33.12,33.12c-.86.86-.86,2.27,0,3.13.43.43,1,.65,1.57.65s1.14-.22,1.57-.65l33.12-33.12c.86-.86.86-2.27,0-3.13-.86-.86-2.27-.86-3.13,0Z"/>
          <path class="cls-1" d="M133.88,135.2l-33.12,33.12c-.86.86-.86,2.27,0,3.13.43.43,1,.65,1.57.65s1.14-.22,1.57-.65l33.12-33.12c.86-.86.86-2.27,0-3.13-.86-.86-2.27-.86-3.13,0Z"/>
          <path class="cls-1" d="M183.94,135.2l-33.12,33.12c-.86.86-.86,2.27,0,3.13.43.43,1,.65,1.57.65s1.14-.22,1.57-.65l33.12-33.12c.86-.86.86-2.27,0-3.13-.86-.86-2.27-.86-3.13,0h0Z"/>
          <path class="cls-1" d="M233.99,135.2l-33.11,33.12c-.86.86-.86,2.27,0,3.13.43.43,1,.65,1.57.65s1.14-.22,1.57-.65l33.11-33.12c.86-.86.86-2.27,0-3.13-.86-.86-2.27-.86-3.13,0h0Z"/>
          <path class="cls-1" d="M284.05,135.2l-33.11,33.12c-.86.86-.86,2.27,0,3.13.43.43,1,.65,1.57.65s1.14-.22,1.57-.65l33.11-33.12c.86-.86.86-2.27,0-3.13-.86-.86-2.27-.86-3.13,0Z"/>
          <path class="cls-1" d="M334.11,135.2l-33.12,33.12c-.86.86-.86,2.27,0,3.13.43.43,1,.65,1.57.65s1.14-.22,1.57-.65l33.12-33.12c.86-.86.86-2.27,0-3.13-.86-.86-2.27-.86-3.13,0h0Z"/>
          <path class="cls-1" d="M384.17,135.2l-33.12,33.12c-.86.86-.86,2.27,0,3.13.43.43,1,.65,1.57.65s1.14-.22,1.57-.65l33.12-33.12c.86-.86.86-2.27,0-3.13-.86-.86-2.27-.86-3.13,0h0Z"/>
          <path class="cls-1" d="M434.23,135.2l-33.12,33.12c-.86.86-.86,2.27,0,3.13.43.43,1,.65,1.57.65s1.14-.22,1.57-.65l33.12-33.12c.86-.86.86-2.27,0-3.13-.86-.86-2.27-.86-3.13,0h0Z"/>
          <path class="cls-1" d="M484.28,135.2l-33.12,33.12c-.86.86-.86,2.27,0,3.13.43.43,1,.65,1.57.65s1.14-.22,1.57-.65l33.12-33.12c.86-.86.86-2.27,0-3.13-.86-.86-2.27-.86-3.13,0h0Z"/>
          <path class="cls-1" d="M454.3,202.48c-.86-.86-2.27-.86-3.13,0-.86.86-.86,2.27,0,3.13l33.12,33.11c.43.43,1,.65,1.57.65s1.14-.22,1.57-.65c.86-.86.86-2.27,0-3.13l-33.12-33.11h0Z"/>
          <path class="cls-1" d="M404.24,202.48c-.86-.86-2.27-.86-3.13,0-.86.86-.86,2.27,0,3.13l33.12,33.11c.43.43,1,.65,1.57.65s1.14-.22,1.57-.65c.86-.86.86-2.27,0-3.13l-33.12-33.11h0Z"/>
          <path class="cls-1" d="M354.19,202.48c-.86-.86-2.27-.86-3.13,0s-.86,2.27,0,3.13l33.12,33.11c.43.43,1,.65,1.57.65s1.14-.22,1.57-.65c.86-.86.86-2.27,0-3.13l-33.12-33.11h0Z"/>
          <path class="cls-1" d="M304.13,202.48c-.86-.86-2.27-.86-3.13,0s-.86,2.27,0,3.13l33.12,33.11c.43.43,1,.65,1.57.65s1.14-.22,1.57-.65c.86-.86.86-2.27,0-3.13l-33.12-33.11h0Z"/>
          <path class="cls-1" d="M254.07,202.48c-.86-.86-2.27-.86-3.13,0-.86.86-.86,2.27,0,3.13l33.11,33.11c.43.43,1,.65,1.57.65s1.14-.22,1.57-.65c.86-.86.86-2.27,0-3.13l-33.11-33.11h0Z"/>
          <path class="cls-1" d="M204.01,202.48c-.86-.86-2.27-.86-3.13,0-.86.86-.86,2.27,0,3.13l33.11,33.11c.43.43,1,.65,1.57.65s1.14-.22,1.57-.65c.86-.86.86-2.27,0-3.13l-33.11-33.11h0Z"/>
          <path class="cls-1" d="M153.95,202.48c-.86-.86-2.27-.86-3.13,0-.86.86-.86,2.27,0,3.13l33.12,33.11c.43.43,1,.65,1.57.65s1.14-.22,1.57-.65c.86-.86.86-2.27,0-3.13l-33.12-33.11h0Z"/>
          <path class="cls-1" d="M103.9,202.48c-.86-.86-2.27-.86-3.13,0s-.86,2.27,0,3.13l33.12,33.11c.43.43,1,.65,1.57.65s1.14-.22,1.57-.65c.86-.86.86-2.27,0-3.13,0,0-33.12-33.11-33.12-33.11Z"/>
          <path class="cls-1" d="M53.84,202.48c-.86-.86-2.27-.86-3.13,0s-.86,2.27,0,3.13l33.12,33.11c.43.43,1,.65,1.57.65s1.14-.22,1.57-.65c.86-.86.86-2.27,0-3.13l-33.12-33.11Z"/>
          <path class="cls-1" d="M3.78,202.48c-.86-.86-2.27-.86-3.13,0-.86.86-.86,2.27,0,3.13l33.12,33.11c.43.43,1,.65,1.57.65s1.14-.22,1.57-.65c.86-.86.86-2.27,0-3.13L3.78,202.48Z"/>
        </g>
      </g>
      <g id="uuid-37660d22-e6a6-4924-b6c6-b7b4fb0ead92" data-name="Layer 1-2">
        <g>
          <path class="cls-1" d="M533.12.65l-33.11,33.11c-.86.86-.86,2.27,0,3.13.43.43,1,.65,1.57.65s1.14-.22,1.57-.65l33.12-33.11c.86-.86.86-2.27,0-3.13-.86-.86-2.27-.86-3.13,0h-.01Z"/>
          <path class="cls-1" d="M583.18.65l-33.12,33.11c-.86.86-.86,2.27,0,3.13.43.43,1,.65,1.57.65s1.14-.22,1.57-.65l33.12-33.11c.86-.86.86-2.27,0-3.13-.86-.86-2.27-.86-3.13,0Z"/>
          <path class="cls-1" d="M633.24.65l-33.12,33.11c-.86.86-.86,2.27,0,3.13.43.43,1,.65,1.57.65s1.14-.22,1.57-.65l33.12-33.11c.86-.86.86-2.27,0-3.13-.86-.86-2.27-.86-3.13,0Z"/>
          <path class="cls-1" d="M683.3.65l-33.12,33.11c-.86.86-.86,2.27,0,3.13.43.43,1,.65,1.57.65s1.14-.22,1.57-.65l33.12-33.11c.86-.86.86-2.27,0-3.13-.86-.86-2.27-.86-3.13,0h0Z"/>
          <path class="cls-1" d="M733.35.65l-33.11,33.11c-.86.86-.86,2.27,0,3.13.43.43,1,.65,1.57.65s1.14-.22,1.57-.65l33.11-33.11c.86-.86.86-2.27,0-3.13-.86-.86-2.27-.86-3.13,0h0Z"/>
          <path class="cls-1" d="M783.41.65l-33.11,33.11c-.86.86-.86,2.27,0,3.13.43.43,1,.65,1.57.65s1.14-.22,1.57-.65l33.11-33.11c.86-.86.86-2.27,0-3.13-.86-.86-2.27-.86-3.13,0Z"/>
          <path class="cls-1" d="M833.48.65l-33.12,33.11c-.86.86-.86,2.27,0,3.13.43.43,1,.65,1.57.65s1.14-.22,1.57-.65l33.12-33.11c.86-.86.86-2.27,0-3.13-.86-.86-2.27-.86-3.13,0h0Z"/>
          <path class="cls-1" d="M883.54.65l-33.12,33.11c-.86.86-.86,2.27,0,3.13.43.43,1,.65,1.57.65s1.14-.22,1.57-.65l33.12-33.11c.86-.86.86-2.27,0-3.13-.86-.86-2.27-.86-3.13,0h0Z"/>
          <path class="cls-1" d="M933.6.65l-33.12,33.11c-.86.86-.86,2.27,0,3.13.43.43,1,.65,1.57.65s1.14-.22,1.57-.65l33.12-33.11c.86-.86.86-2.27,0-3.13-.86-.86-2.27-.86-3.13,0h0Z"/>
          <path class="cls-1" d="M952.11,37.54c.57,0,1.14-.22,1.57-.65l33.12-33.11c.86-.86.86-2.27,0-3.13-.86-.86-2.27-.86-3.13,0l-33.12,33.11c-.86.86-.86,2.27,0,3.13.43.43,1,.65,1.57.65h0Z"/>
          <path class="cls-1" d="M953.67,67.92c-.86-.86-2.27-.86-3.13,0s-.86,2.27,0,3.13l33.12,33.11c.43.43,1,.65,1.57.65s1.14-.22,1.57-.65c.86-.86.86-2.27,0-3.13l-33.12-33.11h0Z"/>
          <path class="cls-1" d="M903.61,67.92c-.86-.86-2.27-.86-3.13,0s-.86,2.27,0,3.13l33.12,33.11c.43.43,1,.65,1.57.65s1.14-.22,1.57-.65c.86-.86.86-2.27,0-3.13l-33.12-33.11h0Z"/>
          <path class="cls-1" d="M853.56,67.92c-.86-.86-2.27-.86-3.13,0s-.86,2.27,0,3.13l33.12,33.11c.43.43,1,.65,1.57.65s1.14-.22,1.57-.65c.86-.86.86-2.27,0-3.13l-33.12-33.11h0Z"/>
          <path class="cls-1" d="M803.5,67.92c-.86-.86-2.27-.86-3.13,0s-.86,2.27,0,3.13l33.12,33.11c.43.43,1,.65,1.57.65s1.14-.22,1.57-.65c.86-.86.86-2.27,0-3.13l-33.12-33.11h0Z"/>
          <path class="cls-1" d="M753.44,67.92c-.86-.86-2.27-.86-3.13,0-.86.86-.86,2.27,0,3.13l33.11,33.11c.43.43,1,.65,1.57.65s1.14-.22,1.57-.65c.86-.86.86-2.27,0-3.13l-33.11-33.11h0Z"/>
          <path class="cls-1" d="M703.38,67.92c-.86-.86-2.27-.86-3.13,0-.86.86-.86,2.27,0,3.13l33.11,33.11c.43.43,1,.65,1.57.65s1.14-.22,1.57-.65c.86-.86.86-2.27,0-3.13l-33.11-33.11h0Z"/>
          <path class="cls-1" d="M653.32,67.92c-.86-.86-2.27-.86-3.13,0-.86.86-.86,2.27,0,3.13l33.12,33.11c.43.43,1,.65,1.57.65s1.14-.22,1.57-.65c.86-.86.86-2.27,0-3.13l-33.12-33.11h0Z"/>
          <path class="cls-1" d="M603.27,67.92c-.86-.86-2.27-.86-3.13,0-.86.86-.86,2.27,0,3.13l33.12,33.11c.43.43,1,.65,1.57.65s1.14-.22,1.57-.65c.86-.86.86-2.27,0-3.13,0,0-33.12-33.11-33.12-33.11Z"/>
          <path class="cls-1" d="M553.21,67.92c-.86-.86-2.27-.86-3.13,0s-.86,2.27,0,3.13l33.12,33.11c.43.43,1,.65,1.57.65s1.14-.22,1.57-.65c.86-.86.86-2.27,0-3.13l-33.12-33.11Z"/>
          <path class="cls-1" d="M503.15,67.92c-.86-.86-2.27-.86-3.13,0-.86.86-.86,2.27,0,3.13l33.12,33.11c.43.43,1,.65,1.57.65s1.14-.22,1.57-.65c.86-.86.86-2.27,0-3.13l-33.12-33.11Z"/>
          <path class="cls-1" d="M533.12,135.2l-33.11,33.11c-.86.86-.86,2.27,0,3.13.43.43,1,.65,1.57.65s1.14-.22,1.57-.65l33.12-33.12c.86-.86.86-2.27,0-3.13-.86-.86-2.27-.86-3.13,0h-.01Z"/>
          <path class="cls-1" d="M583.18,135.2l-33.12,33.12c-.86.86-.86,2.27,0,3.13.43.43,1,.65,1.57.65s1.14-.22,1.57-.65l33.12-33.12c.86-.86.86-2.27,0-3.13-.86-.86-2.27-.86-3.13,0Z"/>
          <path class="cls-1" d="M633.24,135.2l-33.12,33.12c-.86.86-.86,2.27,0,3.13.43.43,1,.65,1.57.65s1.14-.22,1.57-.65l33.12-33.12c.86-.86.86-2.27,0-3.13-.86-.86-2.27-.86-3.13,0Z"/>
          <path class="cls-1" d="M683.3,135.2l-33.12,33.12c-.86.86-.86,2.27,0,3.13.43.43,1,.65,1.57.65s1.14-.22,1.57-.65l33.12-33.12c.86-.86.86-2.27,0-3.13-.86-.86-2.27-.86-3.13,0h0Z"/>
          <path class="cls-1" d="M733.35,135.2l-33.11,33.12c-.86.86-.86,2.27,0,3.13.43.43,1,.65,1.57.65s1.14-.22,1.57-.65l33.11-33.12c.86-.86.86-2.27,0-3.13-.86-.86-2.27-.86-3.13,0h0Z"/>
          <path class="cls-1" d="M783.41,135.2l-33.11,33.12c-.86.86-.86,2.27,0,3.13.43.43,1,.65,1.57.65s1.14-.22,1.57-.65l33.11-33.12c.86-.86.86-2.27,0-3.13-.86-.86-2.27-.86-3.13,0Z"/>
          <path class="cls-1" d="M833.48,135.2l-33.12,33.12c-.86.86-.86,2.27,0,3.13.43.43,1,.65,1.57.65s1.14-.22,1.57-.65l33.12-33.12c.86-.86.86-2.27,0-3.13-.86-.86-2.27-.86-3.13,0h0Z"/>
          <path class="cls-1" d="M883.54,135.2l-33.12,33.12c-.86.86-.86,2.27,0,3.13.43.43,1,.65,1.57.65s1.14-.22,1.57-.65l33.12-33.12c.86-.86.86-2.27,0-3.13-.86-.86-2.27-.86-3.13,0h0Z"/>
          <path class="cls-1" d="M933.6,135.2l-33.12,33.12c-.86.86-.86,2.27,0,3.13.43.43,1,.65,1.57.65s1.14-.22,1.57-.65l33.12-33.12c.86-.86.86-2.27,0-3.13-.86-.86-2.27-.86-3.13,0h0Z"/>
          <path class="cls-1" d="M983.65,135.2l-33.12,33.12c-.86.86-.86,2.27,0,3.13.43.43,1,.65,1.57.65s1.14-.22,1.57-.65l33.12-33.12c.86-.86.86-2.27,0-3.13-.86-.86-2.27-.86-3.13,0h0Z"/>
          <path class="cls-1" d="M953.67,202.48c-.86-.86-2.27-.86-3.13,0s-.86,2.27,0,3.13l33.12,33.11c.43.43,1,.65,1.57.65s1.14-.22,1.57-.65c.86-.86.86-2.27,0-3.13l-33.12-33.11h0Z"/>
          <path class="cls-1" d="M903.61,202.48c-.86-.86-2.27-.86-3.13,0s-.86,2.27,0,3.13l33.12,33.11c.43.43,1,.65,1.57.65s1.14-.22,1.57-.65c.86-.86.86-2.27,0-3.13l-33.12-33.11h0Z"/>
          <path class="cls-1" d="M853.56,202.48c-.86-.86-2.27-.86-3.13,0s-.86,2.27,0,3.13l33.12,33.11c.43.43,1,.65,1.57.65s1.14-.22,1.57-.65c.86-.86.86-2.27,0-3.13l-33.12-33.11h0Z"/>
          <path class="cls-1" d="M803.5,202.48c-.86-.86-2.27-.86-3.13,0s-.86,2.27,0,3.13l33.12,33.11c.43.43,1,.65,1.57.65s1.14-.22,1.57-.65c.86-.86.86-2.27,0-3.13l-33.12-33.11h0Z"/>
          <path class="cls-1" d="M753.44,202.48c-.86-.86-2.27-.86-3.13,0-.86.86-.86,2.27,0,3.13l33.11,33.11c.43.43,1,.65,1.57.65s1.14-.22,1.57-.65c.86-.86.86-2.27,0-3.13l-33.11-33.11h0Z"/>
          <path class="cls-1" d="M703.38,202.48c-.86-.86-2.27-.86-3.13,0-.86.86-.86,2.27,0,3.13l33.11,33.11c.43.43,1,.65,1.57.65s1.14-.22,1.57-.65c.86-.86.86-2.27,0-3.13l-33.11-33.11h0Z"/>
          <path class="cls-1" d="M653.32,202.48c-.86-.86-2.27-.86-3.13,0-.86.86-.86,2.27,0,3.13l33.12,33.11c.43.43,1,.65,1.57.65s1.14-.22,1.57-.65c.86-.86.86-2.27,0-3.13l-33.12-33.11h0Z"/>
          <path class="cls-1" d="M603.27,202.48c-.86-.86-2.27-.86-3.13,0s-.86,2.27,0,3.13l33.12,33.11c.43.43,1,.65,1.57.65s1.14-.22,1.57-.65c.86-.86.86-2.27,0-3.13,0,0-33.12-33.11-33.12-33.11Z"/>
          <path class="cls-1" d="M553.21,202.48c-.86-.86-2.27-.86-3.13,0-.86.86-.86,2.27,0,3.13l33.12,33.11c.43.43,1,.65,1.57.65s1.14-.22,1.57-.65c.86-.86.86-2.27,0-3.13l-33.12-33.11Z"/>
          <path class="cls-1" d="M503.15,202.48c-.86-.86-2.27-.86-3.13,0-.86.86-.86,2.27,0,3.13l33.12,33.11c.43.43,1,.65,1.57.65s1.14-.22,1.57-.65c.86-.86.86-2.27,0-3.13l-33.12-33.11Z"/>
        </g>
      </g>
      <g id="uuid-5cb42cd9-5595-4f6f-914e-047c5a548c21" data-name="Layer 1-2">
        <g>
          <path class="cls-1" d="M36.25,266.34L3.14,299.45c-.86.86-.86,2.27,0,3.13.43.43,1,.65,1.57.65s1.14-.22,1.57-.65l33.12-33.11c.86-.86.86-2.27,0-3.13-.86-.86-2.27-.86-3.13,0h-.01Z"/>
          <path class="cls-1" d="M86.31,266.34l-33.12,33.11c-.86.86-.86,2.27,0,3.13.43.43,1,.65,1.57.65s1.14-.22,1.57-.65l33.12-33.11c.86-.86.86-2.27,0-3.13-.86-.86-2.27-.86-3.13,0Z"/>
          <path class="cls-1" d="M136.37,266.34l-33.12,33.11c-.86.86-.86,2.27,0,3.13.43.43,1,.65,1.57.65s1.14-.22,1.57-.65l33.12-33.11c.86-.86.86-2.27,0-3.13-.86-.86-2.27-.86-3.13,0Z"/>
          <path class="cls-1" d="M186.43,266.34l-33.12,33.11c-.86.86-.86,2.27,0,3.13.43.43,1,.65,1.57.65s1.14-.22,1.57-.65l33.12-33.11c.86-.86.86-2.27,0-3.13-.86-.86-2.27-.86-3.13,0h0Z"/>
          <path class="cls-1" d="M236.48,266.34l-33.11,33.11c-.86.86-.86,2.27,0,3.13.43.43,1,.65,1.57.65s1.14-.22,1.57-.65l33.11-33.11c.86-.86.86-2.27,0-3.13-.86-.86-2.27-.86-3.13,0h0Z"/>
          <path class="cls-1" d="M286.54,266.34l-33.11,33.11c-.86.86-.86,2.27,0,3.13.43.43,1,.65,1.57.65s1.14-.22,1.57-.65l33.11-33.11c.86-.86.86-2.27,0-3.13-.86-.86-2.27-.86-3.13,0Z"/>
          <path class="cls-1" d="M336.6,266.34l-33.12,33.11c-.86.86-.86,2.27,0,3.13.43.43,1,.65,1.57.65s1.14-.22,1.57-.65l33.12-33.11c.86-.86.86-2.27,0-3.13-.86-.86-2.27-.86-3.13,0h0Z"/>
          <path class="cls-1" d="M386.66,266.34l-33.12,33.11c-.86.86-.86,2.27,0,3.13.43.43,1,.65,1.57.65s1.14-.22,1.57-.65l33.12-33.11c.86-.86.86-2.27,0-3.13-.86-.86-2.27-.86-3.13,0h0Z"/>
          <path class="cls-1" d="M436.72,266.34l-33.12,33.11c-.86.86-.86,2.27,0,3.13.43.43,1,.65,1.57.65s1.14-.22,1.57-.65l33.12-33.11c.86-.86.86-2.27,0-3.13-.86-.86-2.27-.86-3.13,0h0Z"/>
          <path class="cls-1" d="M455.23,303.23c.57,0,1.14-.22,1.57-.65l33.12-33.11c.86-.86.86-2.27,0-3.13-.86-.86-2.27-.86-3.13,0l-33.12,33.11c-.86.86-.86,2.27,0,3.13.43.43,1,.65,1.57.65h0Z"/>
          <path class="cls-1" d="M456.8,333.61c-.86-.86-2.27-.86-3.13,0s-.86,2.27,0,3.13l33.12,33.11c.43.43,1,.65,1.57.65s1.14-.22,1.57-.65c.86-.86.86-2.27,0-3.13l-33.12-33.11h0Z"/>
          <path class="cls-1" d="M406.74,333.61c-.86-.86-2.27-.86-3.13,0s-.86,2.27,0,3.13l33.12,33.11c.43.43,1,.65,1.57.65s1.14-.22,1.57-.65c.86-.86.86-2.27,0-3.13l-33.12-33.11h0Z"/>
          <path class="cls-1" d="M356.69,333.61c-.86-.86-2.27-.86-3.13,0s-.86,2.27,0,3.13l33.12,33.11c.43.43,1,.65,1.57.65s1.14-.22,1.57-.65c.86-.86.86-2.27,0-3.13l-33.12-33.11h0Z"/>
          <path class="cls-1" d="M306.63,333.61c-.86-.86-2.27-.86-3.13,0s-.86,2.27,0,3.13l33.12,33.11c.43.43,1,.65,1.57.65s1.14-.22,1.57-.65c.86-.86.86-2.27,0-3.13l-33.12-33.11h0Z"/>
          <path class="cls-1" d="M256.57,333.61c-.86-.86-2.27-.86-3.13,0-.86.86-.86,2.27,0,3.13l33.11,33.11c.43.43,1,.65,1.57.65s1.14-.22,1.57-.65c.86-.86.86-2.27,0-3.13l-33.11-33.11h0Z"/>
          <path class="cls-1" d="M206.51,333.61c-.86-.86-2.27-.86-3.13,0-.86.86-.86,2.27,0,3.13l33.11,33.11c.43.43,1,.65,1.57.65s1.14-.22,1.57-.65c.86-.86.86-2.27,0-3.13l-33.11-33.11h0Z"/>
          <path class="cls-1" d="M156.45,333.61c-.86-.86-2.27-.86-3.13,0-.86.86-.86,2.27,0,3.13l33.12,33.11c.43.43,1,.65,1.57.65s1.14-.22,1.57-.65c.86-.86.86-2.27,0-3.13l-33.12-33.11h0Z"/>
          <path class="cls-1" d="M106.4,333.61c-.86-.86-2.27-.86-3.13,0s-.86,2.27,0,3.13l33.12,33.11c.43.43,1,.65,1.57.65s1.14-.22,1.57-.65c.86-.86.86-2.27,0-3.13,0,0-33.12-33.11-33.12-33.11Z"/>
          <path class="cls-1" d="M56.34,333.61c-.86-.86-2.27-.86-3.13,0s-.86,2.27,0,3.13l33.12,33.11c.43.43,1,.65,1.57.65s1.14-.22,1.57-.65c.86-.86.86-2.27,0-3.13l-33.12-33.11Z"/>
          <path class="cls-1" d="M6.28,333.61c-.86-.86-2.27-.86-3.13,0-.86.86-.86,2.27,0,3.13l33.12,33.11c.43.43,1,.65,1.57.65s1.14-.22,1.57-.65c.86-.86.86-2.27,0-3.13l-33.12-33.11Z"/>
          <path class="cls-1" d="M36.25,400.89L3.14,434c-.86.86-.86,2.27,0,3.13.43.43,1,.65,1.57.65s1.14-.22,1.57-.65l33.12-33.12c.86-.86.86-2.27,0-3.13-.86-.86-2.27-.86-3.13,0h-.01Z"/>
          <path class="cls-1" d="M86.31,400.89l-33.12,33.12c-.86.86-.86,2.27,0,3.13.43.43,1,.65,1.57.65s1.14-.22,1.57-.65l33.12-33.12c.86-.86.86-2.27,0-3.13-.86-.86-2.27-.86-3.13,0Z"/>
          <path class="cls-1" d="M136.37,400.89l-33.12,33.12c-.86.86-.86,2.27,0,3.13.43.43,1,.65,1.57.65s1.14-.22,1.57-.65l33.12-33.12c.86-.86.86-2.27,0-3.13-.86-.86-2.27-.86-3.13,0Z"/>
          <path class="cls-1" d="M186.43,400.89l-33.12,33.12c-.86.86-.86,2.27,0,3.13.43.43,1,.65,1.57.65s1.14-.22,1.57-.65l33.12-33.12c.86-.86.86-2.27,0-3.13-.86-.86-2.27-.86-3.13,0h0Z"/>
          <path class="cls-1" d="M236.48,400.89l-33.11,33.12c-.86.86-.86,2.27,0,3.13.43.43,1,.65,1.57.65s1.14-.22,1.57-.65l33.11-33.12c.86-.86.86-2.27,0-3.13-.86-.86-2.27-.86-3.13,0h0Z"/>
          <path class="cls-1" d="M286.54,400.89l-33.11,33.12c-.86.86-.86,2.27,0,3.13.43.43,1,.65,1.57.65s1.14-.22,1.57-.65l33.11-33.12c.86-.86.86-2.27,0-3.13-.86-.86-2.27-.86-3.13,0Z"/>
          <path class="cls-1" d="M336.6,400.89l-33.12,33.12c-.86.86-.86,2.27,0,3.13.43.43,1,.65,1.57.65s1.14-.22,1.57-.65l33.12-33.12c.86-.86.86-2.27,0-3.13-.86-.86-2.27-.86-3.13,0h0Z"/>
          <path class="cls-1" d="M386.66,400.89l-33.12,33.12c-.86.86-.86,2.27,0,3.13.43.43,1,.65,1.57.65s1.14-.22,1.57-.65l33.12-33.12c.86-.86.86-2.27,0-3.13-.86-.86-2.27-.86-3.13,0h0Z"/>
          <path class="cls-1" d="M436.72,400.89l-33.12,33.12c-.86.86-.86,2.27,0,3.13.43.43,1,.65,1.57.65s1.14-.22,1.57-.65l33.12-33.12c.86-.86.86-2.27,0-3.13-.86-.86-2.27-.86-3.13,0h0Z"/>
          <path class="cls-1" d="M486.77,400.89l-33.12,33.12c-.86.86-.86,2.27,0,3.13.43.43,1,.65,1.57.65s1.14-.22,1.57-.65l33.12-33.12c.86-.86.86-2.27,0-3.13-.86-.86-2.27-.86-3.13,0h0Z"/>
          <path class="cls-1" d="M456.8,468.17c-.86-.86-2.27-.86-3.13,0s-.86,2.27,0,3.13l33.12,33.11c.43.43,1,.65,1.57.65s1.14-.22,1.57-.65c.86-.86.86-2.27,0-3.13l-33.12-33.11h0Z"/>
          <path class="cls-1" d="M406.74,468.17c-.86-.86-2.27-.86-3.13,0s-.86,2.27,0,3.13l33.12,33.11c.43.43,1,.65,1.57.65s1.14-.22,1.57-.65c.86-.86.86-2.27,0-3.13l-33.12-33.11h0Z"/>
          <path class="cls-1" d="M356.69,468.17c-.86-.86-2.27-.86-3.13,0s-.86,2.27,0,3.13l33.12,33.11c.43.43,1,.65,1.57.65s1.14-.22,1.57-.65c.86-.86.86-2.27,0-3.13l-33.12-33.11h0Z"/>
          <path class="cls-1" d="M306.63,468.17c-.86-.86-2.27-.86-3.13,0s-.86,2.27,0,3.13l33.12,33.11c.43.43,1,.65,1.57.65s1.14-.22,1.57-.65c.86-.86.86-2.27,0-3.13l-33.12-33.11h0Z"/>
          <path class="cls-1" d="M256.57,468.17c-.86-.86-2.27-.86-3.13,0-.86.86-.86,2.27,0,3.13l33.11,33.11c.43.43,1,.65,1.57.65s1.14-.22,1.57-.65c.86-.86.86-2.27,0-3.13l-33.11-33.11h0Z"/>
          <path class="cls-1" d="M206.51,468.17c-.86-.86-2.27-.86-3.13,0-.86.86-.86,2.27,0,3.13l33.11,33.11c.43.43,1,.65,1.57.65s1.14-.22,1.57-.65c.86-.86.86-2.27,0-3.13l-33.11-33.11h0Z"/>
          <path class="cls-1" d="M156.45,468.17c-.86-.86-2.27-.86-3.13,0-.86.86-.86,2.27,0,3.13l33.12,33.11c.43.43,1,.65,1.57.65s1.14-.22,1.57-.65c.86-.86.86-2.27,0-3.13l-33.12-33.11h0Z"/>
          <path class="cls-1" d="M106.4,468.17c-.86-.86-2.27-.86-3.13,0s-.86,2.27,0,3.13l33.12,33.11c.43.43,1,.65,1.57.65s1.14-.22,1.57-.65c.86-.86.86-2.27,0-3.13,0,0-33.12-33.11-33.12-33.11Z"/>
          <path class="cls-1" d="M56.34,468.17c-.86-.86-2.27-.86-3.13,0-.86.86-.86,2.27,0,3.13l33.12,33.11c.43.43,1,.65,1.57.65s1.14-.22,1.57-.65c.86-.86.86-2.27,0-3.13l-33.12-33.11Z"/>
          <path class="cls-1" d="M6.28,468.17c-.86-.86-2.27-.86-3.13,0-.86.86-.86,2.27,0,3.13l33.12,33.11c.43.43,1,.65,1.57.65s1.14-.22,1.57-.65c.86-.86.86-2.27,0-3.13l-33.12-33.11Z"/>
        </g>
      </g>
      <g id="uuid-9c114f85-687b-45b0-908a-748020099522" data-name="Layer 1-2">
        <g>
          <path class="cls-1" d="M535.62,266.34l-33.11,33.11c-.86.86-.86,2.27,0,3.13.43.43,1,.65,1.57.65s1.14-.22,1.57-.65l33.12-33.11c.86-.86.86-2.27,0-3.13-.86-.86-2.27-.86-3.13,0h-.01Z"/>
          <path class="cls-1" d="M585.68,266.34l-33.12,33.11c-.86.86-.86,2.27,0,3.13.43.43,1,.65,1.57.65s1.14-.22,1.57-.65l33.12-33.11c.86-.86.86-2.27,0-3.13-.86-.86-2.27-.86-3.13,0Z"/>
          <path class="cls-1" d="M635.74,266.34l-33.12,33.11c-.86.86-.86,2.27,0,3.13.43.43,1,.65,1.57.65s1.14-.22,1.57-.65l33.12-33.11c.86-.86.86-2.27,0-3.13-.86-.86-2.27-.86-3.13,0Z"/>
          <path class="cls-1" d="M685.8,266.34l-33.12,33.11c-.86.86-.86,2.27,0,3.13.43.43,1,.65,1.57.65s1.14-.22,1.57-.65l33.12-33.11c.86-.86.86-2.27,0-3.13-.86-.86-2.27-.86-3.13,0h0Z"/>
          <path class="cls-1" d="M735.85,266.34l-33.11,33.11c-.86.86-.86,2.27,0,3.13.43.43,1,.65,1.57.65s1.14-.22,1.57-.65l33.11-33.11c.86-.86.86-2.27,0-3.13-.86-.86-2.27-.86-3.13,0h0Z"/>
          <path class="cls-1" d="M785.91,266.34l-33.11,33.11c-.86.86-.86,2.27,0,3.13.43.43,1,.65,1.57.65s1.14-.22,1.57-.65l33.11-33.11c.86-.86.86-2.27,0-3.13-.86-.86-2.27-.86-3.13,0Z"/>
          <path class="cls-1" d="M835.97,266.34l-33.12,33.11c-.86.86-.86,2.27,0,3.13.43.43,1,.65,1.57.65s1.14-.22,1.57-.65l33.12-33.11c.86-.86.86-2.27,0-3.13-.86-.86-2.27-.86-3.13,0h0Z"/>
          <path class="cls-1" d="M886.03,266.34l-33.12,33.11c-.86.86-.86,2.27,0,3.13.43.43,1,.65,1.57.65s1.14-.22,1.57-.65l33.12-33.11c.86-.86.86-2.27,0-3.13-.86-.86-2.27-.86-3.13,0h0Z"/>
          <path class="cls-1" d="M936.09,266.34l-33.12,33.11c-.86.86-.86,2.27,0,3.13.43.43,1,.65,1.57.65s1.14-.22,1.57-.65l33.12-33.11c.86-.86.86-2.27,0-3.13-.86-.86-2.27-.86-3.13,0h0Z"/>
          <path class="cls-1" d="M954.6,303.23c.57,0,1.14-.22,1.57-.65l33.12-33.11c.86-.86.86-2.27,0-3.13-.86-.86-2.27-.86-3.13,0l-33.12,33.11c-.86.86-.86,2.27,0,3.13.43.43,1,.65,1.57.65h0Z"/>
          <path class="cls-1" d="M956.17,333.61c-.86-.86-2.27-.86-3.13,0s-.86,2.27,0,3.13l33.12,33.11c.43.43,1,.65,1.57.65s1.14-.22,1.57-.65c.86-.86.86-2.27,0-3.13l-33.12-33.11h0Z"/>
          <path class="cls-1" d="M906.11,333.61c-.86-.86-2.27-.86-3.13,0s-.86,2.27,0,3.13l33.12,33.11c.43.43,1,.65,1.57.65s1.14-.22,1.57-.65c.86-.86.86-2.27,0-3.13l-33.12-33.11h0Z"/>
          <path class="cls-1" d="M856.06,333.61c-.86-.86-2.27-.86-3.13,0s-.86,2.27,0,3.13l33.12,33.11c.43.43,1,.65,1.57.65s1.14-.22,1.57-.65c.86-.86.86-2.27,0-3.13l-33.12-33.11h0Z"/>
          <path class="cls-1" d="M806,333.61c-.86-.86-2.27-.86-3.13,0s-.86,2.27,0,3.13l33.12,33.11c.43.43,1,.65,1.57.65s1.14-.22,1.57-.65c.86-.86.86-2.27,0-3.13l-33.12-33.11h0Z"/>
          <path class="cls-1" d="M755.94,333.61c-.86-.86-2.27-.86-3.13,0-.86.86-.86,2.27,0,3.13l33.11,33.11c.43.43,1,.65,1.57.65s1.14-.22,1.57-.65c.86-.86.86-2.27,0-3.13l-33.11-33.11h0Z"/>
          <path class="cls-1" d="M705.88,333.61c-.86-.86-2.27-.86-3.13,0-.86.86-.86,2.27,0,3.13l33.11,33.11c.43.43,1,.65,1.57.65s1.14-.22,1.57-.65c.86-.86.86-2.27,0-3.13l-33.11-33.11h0Z"/>
          <path class="cls-1" d="M655.82,333.61c-.86-.86-2.27-.86-3.13,0-.86.86-.86,2.27,0,3.13l33.12,33.11c.43.43,1,.65,1.57.65s1.14-.22,1.57-.65c.86-.86.86-2.27,0-3.13l-33.12-33.11h0Z"/>
          <path class="cls-1" d="M605.77,333.61c-.86-.86-2.27-.86-3.13,0s-.86,2.27,0,3.13l33.12,33.11c.43.43,1,.65,1.57.65s1.14-.22,1.57-.65c.86-.86.86-2.27,0-3.13,0,0-33.12-33.11-33.12-33.11Z"/>
          <path class="cls-1" d="M555.7,333.61c-.86-.86-2.27-.86-3.13,0s-.86,2.27,0,3.13l33.12,33.11c.43.43,1,.65,1.57.65s1.14-.22,1.57-.65c.86-.86.86-2.27,0-3.13l-33.12-33.11Z"/>
          <path class="cls-1" d="M505.64,333.61c-.86-.86-2.27-.86-3.13,0-.86.86-.86,2.27,0,3.13l33.12,33.11c.43.43,1,.65,1.57.65s1.14-.22,1.57-.65c.86-.86.86-2.27,0-3.13l-33.12-33.11Z"/>
          <path class="cls-1" d="M535.62,400.89l-33.11,33.11c-.86.86-.86,2.27,0,3.13.43.43,1,.65,1.57.65s1.14-.22,1.57-.65l33.12-33.12c.86-.86.86-2.27,0-3.13-.86-.86-2.27-.86-3.13,0h-.01Z"/>
          <path class="cls-1" d="M585.68,400.89l-33.12,33.12c-.86.86-.86,2.27,0,3.13.43.43,1,.65,1.57.65s1.14-.22,1.57-.65l33.12-33.12c.86-.86.86-2.27,0-3.13-.86-.86-2.27-.86-3.13,0Z"/>
          <path class="cls-1" d="M635.74,400.89l-33.12,33.12c-.86.86-.86,2.27,0,3.13.43.43,1,.65,1.57.65s1.14-.22,1.57-.65l33.12-33.12c.86-.86.86-2.27,0-3.13-.86-.86-2.27-.86-3.13,0Z"/>
          <path class="cls-1" d="M685.8,400.89l-33.12,33.12c-.86.86-.86,2.27,0,3.13.43.43,1,.65,1.57.65s1.14-.22,1.57-.65l33.12-33.12c.86-.86.86-2.27,0-3.13-.86-.86-2.27-.86-3.13,0h0Z"/>
          <path class="cls-1" d="M735.85,400.89l-33.11,33.12c-.86.86-.86,2.27,0,3.13.43.43,1,.65,1.57.65s1.14-.22,1.57-.65l33.11-33.12c.86-.86.86-2.27,0-3.13-.86-.86-2.27-.86-3.13,0h0Z"/>
          <path class="cls-1" d="M785.91,400.89l-33.11,33.12c-.86.86-.86,2.27,0,3.13.43.43,1,.65,1.57.65s1.14-.22,1.57-.65l33.11-33.12c.86-.86.86-2.27,0-3.13-.86-.86-2.27-.86-3.13,0Z"/>
          <path class="cls-1" d="M835.97,400.89l-33.12,33.12c-.86.86-.86,2.27,0,3.13.43.43,1,.65,1.57.65s1.14-.22,1.57-.65l33.12-33.12c.86-.86.86-2.27,0-3.13-.86-.86-2.27-.86-3.13,0h0Z"/>
          <path class="cls-1" d="M886.03,400.89l-33.12,33.12c-.86.86-.86,2.27,0,3.13.43.43,1,.65,1.57.65s1.14-.22,1.57-.65l33.12-33.12c.86-.86.86-2.27,0-3.13-.86-.86-2.27-.86-3.13,0h0Z"/>
          <path class="cls-1" d="M936.09,400.89l-33.12,33.12c-.86.86-.86,2.27,0,3.13.43.43,1,.65,1.57.65s1.14-.22,1.57-.65l33.12-33.12c.86-.86.86-2.27,0-3.13-.86-.86-2.27-.86-3.13,0h0Z"/>
          <path class="cls-1" d="M986.14,400.89l-33.12,33.12c-.86.86-.86,2.27,0,3.13.43.43,1,.65,1.57.65s1.14-.22,1.57-.65l33.12-33.12c.86-.86.86-2.27,0-3.13-.86-.86-2.27-.86-3.13,0h0Z"/>
          <path class="cls-1" d="M956.17,468.17c-.86-.86-2.27-.86-3.13,0s-.86,2.27,0,3.13l33.12,33.11c.43.43,1,.65,1.57.65s1.14-.22,1.57-.65c.86-.86.86-2.27,0-3.13l-33.12-33.11h0Z"/>
          <path class="cls-1" d="M906.11,468.17c-.86-.86-2.27-.86-3.13,0s-.86,2.27,0,3.13l33.12,33.11c.43.43,1,.65,1.57.65s1.14-.22,1.57-.65c.86-.86.86-2.27,0-3.13l-33.12-33.11h0Z"/>
          <path class="cls-1" d="M856.06,468.17c-.86-.86-2.27-.86-3.13,0s-.86,2.27,0,3.13l33.12,33.11c.43.43,1,.65,1.57.65s1.14-.22,1.57-.65c.86-.86.86-2.27,0-3.13l-33.12-33.11h0Z"/>
          <path class="cls-1" d="M806,468.17c-.86-.86-2.27-.86-3.13,0s-.86,2.27,0,3.13l33.12,33.11c.43.43,1,.65,1.57.65s1.14-.22,1.57-.65c.86-.86.86-2.27,0-3.13l-33.12-33.11h0Z"/>
          <path class="cls-1" d="M755.94,468.17c-.86-.86-2.27-.86-3.13,0-.86.86-.86,2.27,0,3.13l33.11,33.11c.43.43,1,.65,1.57.65s1.14-.22,1.57-.65c.86-.86.86-2.27,0-3.13l-33.11-33.11h0Z"/>
          <path class="cls-1" d="M705.88,468.17c-.86-.86-2.27-.86-3.13,0-.86.86-.86,2.27,0,3.13l33.11,33.11c.43.43,1,.65,1.57.65s1.14-.22,1.57-.65c.86-.86.86-2.27,0-3.13l-33.11-33.11h0Z"/>
          <path class="cls-1" d="M655.82,468.17c-.86-.86-2.27-.86-3.13,0-.86.86-.86,2.27,0,3.13l33.12,33.11c.43.43,1,.65,1.57.65s1.14-.22,1.57-.65c.86-.86.86-2.27,0-3.13l-33.12-33.11h0Z"/>
          <path class="cls-1" d="M605.77,468.17c-.86-.86-2.27-.86-3.13,0-.86.86-.86,2.27,0,3.13l33.12,33.11c.43.43,1,.65,1.57.65s1.14-.22,1.57-.65c.86-.86.86-2.27,0-3.13,0,0-33.12-33.11-33.12-33.11Z"/>
          <path class="cls-1" d="M555.7,468.17c-.86-.86-2.27-.86-3.13,0-.86.86-.86,2.27,0,3.13l33.12,33.11c.43.43,1,.65,1.57.65s1.14-.22,1.57-.65c.86-.86.86-2.27,0-3.13l-33.12-33.11Z"/>
          <path class="cls-1" d="M505.64,468.17c-.86-.86-2.27-.86-3.13,0-.86.86-.86,2.27,0,3.13l33.12,33.11c.43.43,1,.65,1.57.65s1.14-.22,1.57-.65c.86-.86.86-2.27,0-3.13l-33.12-33.11Z"/>
        </g>
      </g>
      <g id="uuid-0c25e065-2e35-4323-a212-9f6233f9ab60" data-name="Layer 1-2">
        <g>
          <path class="cls-1" d="M38.16,544.04l-33.11,33.11c-.86.86-.86,2.27,0,3.13.43.43,1,.65,1.57.65s1.14-.22,1.57-.65l33.12-33.11c.86-.86.86-2.27,0-3.13-.86-.86-2.27-.86-3.13,0h-.01Z"/>
          <path class="cls-1" d="M88.22,544.04l-33.12,33.11c-.86.86-.86,2.27,0,3.13.43.43,1,.65,1.57.65s1.14-.22,1.57-.65l33.12-33.11c.86-.86.86-2.27,0-3.13-.86-.86-2.27-.86-3.13,0Z"/>
          <path class="cls-1" d="M138.28,544.04l-33.12,33.11c-.86.86-.86,2.27,0,3.13.43.43,1,.65,1.57.65s1.14-.22,1.57-.65l33.12-33.11c.86-.86.86-2.27,0-3.13-.86-.86-2.27-.86-3.13,0Z"/>
          <path class="cls-1" d="M188.34,544.04l-33.12,33.11c-.86.86-.86,2.27,0,3.13.43.43,1,.65,1.57.65s1.14-.22,1.57-.65l33.12-33.11c.86-.86.86-2.27,0-3.13-.86-.86-2.27-.86-3.13,0h0Z"/>
          <path class="cls-1" d="M238.39,544.04l-33.11,33.11c-.86.86-.86,2.27,0,3.13.43.43,1,.65,1.57.65s1.14-.22,1.57-.65l33.11-33.11c.86-.86.86-2.27,0-3.13-.86-.86-2.27-.86-3.13,0h0Z"/>
          <path class="cls-1" d="M288.45,544.04l-33.11,33.11c-.86.86-.86,2.27,0,3.13.43.43,1,.65,1.57.65s1.14-.22,1.57-.65l33.11-33.11c.86-.86.86-2.27,0-3.13-.86-.86-2.27-.86-3.13,0Z"/>
          <path class="cls-1" d="M338.51,544.04l-33.12,33.11c-.86.86-.86,2.27,0,3.13.43.43,1,.65,1.57.65s1.14-.22,1.57-.65l33.12-33.11c.86-.86.86-2.27,0-3.13-.86-.86-2.27-.86-3.13,0h0Z"/>
          <path class="cls-1" d="M388.57,544.04l-33.12,33.11c-.86.86-.86,2.27,0,3.13.43.43,1,.65,1.57.65s1.14-.22,1.57-.65l33.12-33.11c.86-.86.86-2.27,0-3.13-.86-.86-2.27-.86-3.13,0h0Z"/>
          <path class="cls-1" d="M438.63,544.04l-33.12,33.11c-.86.86-.86,2.27,0,3.13.43.43,1,.65,1.57.65s1.14-.22,1.57-.65l33.12-33.11c.86-.86.86-2.27,0-3.13-.86-.86-2.27-.86-3.13,0h0Z"/>
          <path class="cls-1" d="M457.14,580.93c.57,0,1.14-.22,1.57-.65l33.12-33.11c.86-.86.86-2.27,0-3.13-.86-.86-2.27-.86-3.13,0l-33.12,33.11c-.86.86-.86,2.27,0,3.13.43.43,1,.65,1.57.65h0Z"/>
          <path class="cls-1" d="M458.71,611.31c-.86-.86-2.27-.86-3.13,0-.86.86-.86,2.27,0,3.13l33.12,33.11c.43.43,1,.65,1.57.65s1.14-.22,1.57-.65c.86-.86.86-2.27,0-3.13l-33.12-33.11h0Z"/>
          <path class="cls-1" d="M408.65,611.31c-.86-.86-2.27-.86-3.13,0s-.86,2.27,0,3.13l33.12,33.11c.43.43,1,.65,1.57.65s1.14-.22,1.57-.65c.86-.86.86-2.27,0-3.13l-33.12-33.11h0Z"/>
          <path class="cls-1" d="M358.6,611.31c-.86-.86-2.27-.86-3.13,0s-.86,2.27,0,3.13l33.12,33.11c.43.43,1,.65,1.57.65s1.14-.22,1.57-.65c.86-.86.86-2.27,0-3.13l-33.12-33.11h0Z"/>
          <path class="cls-1" d="M308.54,611.31c-.86-.86-2.27-.86-3.13,0s-.86,2.27,0,3.13l33.12,33.11c.43.43,1,.65,1.57.65s1.14-.22,1.57-.65c.86-.86.86-2.27,0-3.13l-33.12-33.11h0Z"/>
          <path class="cls-1" d="M258.48,611.31c-.86-.86-2.27-.86-3.13,0-.86.86-.86,2.27,0,3.13l33.11,33.11c.43.43,1,.65,1.57.65s1.14-.22,1.57-.65c.86-.86.86-2.27,0-3.13l-33.11-33.11h0Z"/>
          <path class="cls-1" d="M208.41,611.31c-.86-.86-2.27-.86-3.13,0-.86.86-.86,2.27,0,3.13l33.11,33.11c.43.43,1,.65,1.57.65s1.14-.22,1.57-.65c.86-.86.86-2.27,0-3.13l-33.11-33.11h0Z"/>
          <path class="cls-1" d="M158.35,611.31c-.86-.86-2.27-.86-3.13,0-.86.86-.86,2.27,0,3.13l33.12,33.11c.43.43,1,.65,1.57.65s1.14-.22,1.57-.65c.86-.86.86-2.27,0-3.13l-33.12-33.11h0Z"/>
          <path class="cls-1" d="M108.3,611.31c-.86-.86-2.27-.86-3.13,0s-.86,2.27,0,3.13l33.12,33.11c.43.43,1,.65,1.57.65s1.14-.22,1.57-.65c.86-.86.86-2.27,0-3.13,0,0-33.12-33.11-33.12-33.11Z"/>
          <path class="cls-1" d="M58.24,611.31c-.86-.86-2.27-.86-3.13,0s-.86,2.27,0,3.13l33.12,33.11c.43.43,1,.65,1.57.65s1.14-.22,1.57-.65c.86-.86.86-2.27,0-3.13,0,0-33.12-33.11-33.12-33.11Z"/>
          <path class="cls-1" d="M8.18,611.31c-.86-.86-2.27-.86-3.13,0-.86.86-.86,2.27,0,3.13l33.12,33.11c.43.43,1,.65,1.57.65s1.14-.22,1.57-.65c.86-.86.86-2.27,0-3.13l-33.12-33.11Z"/>
          <path class="cls-1" d="M38.16,678.59l-33.11,33.11c-.86.86-.86,2.27,0,3.13.43.43,1,.65,1.57.65s1.14-.22,1.57-.65l33.12-33.12c.86-.86.86-2.27,0-3.13-.86-.86-2.27-.86-3.13,0h-.01Z"/>
          <path class="cls-1" d="M88.22,678.59l-33.12,33.12c-.86.86-.86,2.27,0,3.13.43.43,1,.65,1.57.65s1.14-.22,1.57-.65l33.12-33.12c.86-.86.86-2.27,0-3.13-.86-.86-2.27-.86-3.13,0Z"/>
          <path class="cls-1" d="M138.28,678.59l-33.12,33.12c-.86.86-.86,2.27,0,3.13.43.43,1,.65,1.57.65s1.14-.22,1.57-.65l33.12-33.12c.86-.86.86-2.27,0-3.13-.86-.86-2.27-.86-3.13,0Z"/>
          <path class="cls-1" d="M188.34,678.59l-33.12,33.12c-.86.86-.86,2.27,0,3.13.43.43,1,.65,1.57.65s1.14-.22,1.57-.65l33.12-33.12c.86-.86.86-2.27,0-3.13-.86-.86-2.27-.86-3.13,0h0Z"/>
          <path class="cls-1" d="M238.39,678.59l-33.11,33.12c-.86.86-.86,2.27,0,3.13.43.43,1,.65,1.57.65s1.14-.22,1.57-.65l33.11-33.12c.86-.86.86-2.27,0-3.13-.86-.86-2.27-.86-3.13,0h0Z"/>
          <path class="cls-1" d="M288.45,678.59l-33.11,33.12c-.86.86-.86,2.27,0,3.13.43.43,1,.65,1.57.65s1.14-.22,1.57-.65l33.11-33.12c.86-.86.86-2.27,0-3.13-.86-.86-2.27-.86-3.13,0Z"/>
          <path class="cls-1" d="M338.51,678.59l-33.12,33.12c-.86.86-.86,2.27,0,3.13.43.43,1,.65,1.57.65s1.14-.22,1.57-.65l33.12-33.12c.86-.86.86-2.27,0-3.13-.86-.86-2.27-.86-3.13,0h0Z"/>
          <path class="cls-1" d="M388.57,678.59l-33.12,33.12c-.86.86-.86,2.27,0,3.13.43.43,1,.65,1.57.65s1.14-.22,1.57-.65l33.12-33.12c.86-.86.86-2.27,0-3.13-.86-.86-2.27-.86-3.13,0h0Z"/>
          <path class="cls-1" d="M438.63,678.59l-33.12,33.12c-.86.86-.86,2.27,0,3.13.43.43,1,.65,1.57.65s1.14-.22,1.57-.65l33.12-33.12c.86-.86.86-2.27,0-3.13-.86-.86-2.27-.86-3.13,0h0Z"/>
          <path class="cls-1" d="M488.68,678.59l-33.12,33.12c-.86.86-.86,2.27,0,3.13.43.43,1,.65,1.57.65s1.14-.22,1.57-.65l33.12-33.12c.86-.86.86-2.27,0-3.13-.86-.86-2.27-.86-3.13,0h0Z"/>
          <path class="cls-1" d="M458.71,745.87c-.86-.86-2.27-.86-3.13,0-.86.86-.86,2.27,0,3.13l33.12,33.11c.43.43,1,.65,1.57.65s1.14-.22,1.57-.65c.86-.86.86-2.27,0-3.13l-33.12-33.11h0Z"/>
          <path class="cls-1" d="M408.65,745.87c-.86-.86-2.27-.86-3.13,0s-.86,2.27,0,3.13l33.12,33.11c.43.43,1,.65,1.57.65s1.14-.22,1.57-.65c.86-.86.86-2.27,0-3.13l-33.12-33.11h0Z"/>
          <path class="cls-1" d="M358.6,745.87c-.86-.86-2.27-.86-3.13,0s-.86,2.27,0,3.13l33.12,33.11c.43.43,1,.65,1.57.65s1.14-.22,1.57-.65c.86-.86.86-2.27,0-3.13l-33.12-33.11h0Z"/>
          <path class="cls-1" d="M308.54,745.87c-.86-.86-2.27-.86-3.13,0s-.86,2.27,0,3.13l33.12,33.11c.43.43,1,.65,1.57.65s1.14-.22,1.57-.65c.86-.86.86-2.27,0-3.13l-33.12-33.11h0Z"/>
          <path class="cls-1" d="M258.48,745.87c-.86-.86-2.27-.86-3.13,0-.86.86-.86,2.27,0,3.13l33.11,33.11c.43.43,1,.65,1.57.65s1.14-.22,1.57-.65c.86-.86.86-2.27,0-3.13l-33.11-33.11h0Z"/>
          <path class="cls-1" d="M208.41,745.87c-.86-.86-2.27-.86-3.13,0-.86.86-.86,2.27,0,3.13l33.11,33.11c.43.43,1,.65,1.57.65s1.14-.22,1.57-.65c.86-.86.86-2.27,0-3.13l-33.11-33.11h0Z"/>
          <path class="cls-1" d="M158.35,745.87c-.86-.86-2.27-.86-3.13,0-.86.86-.86,2.27,0,3.13l33.12,33.11c.43.43,1,.65,1.57.65s1.14-.22,1.57-.65c.86-.86.86-2.27,0-3.13l-33.12-33.11h0Z"/>
          <path class="cls-1" d="M108.3,745.87c-.86-.86-2.27-.86-3.13,0s-.86,2.27,0,3.13l33.12,33.11c.43.43,1,.65,1.57.65s1.14-.22,1.57-.65c.86-.86.86-2.27,0-3.13,0,0-33.12-33.11-33.12-33.11Z"/>
          <path class="cls-1" d="M58.24,745.87c-.86-.86-2.27-.86-3.13,0s-.86,2.27,0,3.13l33.12,33.11c.43.43,1,.65,1.57.65s1.14-.22,1.57-.65c.86-.86.86-2.27,0-3.13,0,0-33.12-33.11-33.12-33.11Z"/>
          <path class="cls-1" d="M8.18,745.87c-.86-.86-2.27-.86-3.13,0-.86.86-.86,2.27,0,3.13l33.12,33.11c.43.43,1,.65,1.57.65s1.14-.22,1.57-.65c.86-.86.86-2.27,0-3.13,0,0-33.12-33.11-33.12-33.11Z"/>
        </g>
      </g>
      <g id="uuid-b8464274-3ece-4c82-afdb-f4d032eedb60" data-name="Layer 1-2">
        <g>
          <path class="cls-1" d="M537.53,544.04l-33.11,33.11c-.86.86-.86,2.27,0,3.13.43.43,1,.65,1.57.65s1.14-.22,1.57-.65l33.12-33.11c.86-.86.86-2.27,0-3.13-.86-.86-2.27-.86-3.13,0h-.01Z"/>
          <path class="cls-1" d="M587.59,544.04l-33.12,33.11c-.86.86-.86,2.27,0,3.13.43.43,1,.65,1.57.65s1.14-.22,1.57-.65l33.12-33.11c.86-.86.86-2.27,0-3.13-.86-.86-2.27-.86-3.13,0Z"/>
          <path class="cls-1" d="M637.65,544.04l-33.12,33.11c-.86.86-.86,2.27,0,3.13.43.43,1,.65,1.57.65s1.14-.22,1.57-.65l33.12-33.11c.86-.86.86-2.27,0-3.13-.86-.86-2.27-.86-3.13,0Z"/>
          <path class="cls-1" d="M687.71,544.04l-33.12,33.11c-.86.86-.86,2.27,0,3.13.43.43,1,.65,1.57.65s1.14-.22,1.57-.65l33.12-33.11c.86-.86.86-2.27,0-3.13-.86-.86-2.27-.86-3.13,0h0Z"/>
          <path class="cls-1" d="M737.76,544.04l-33.11,33.11c-.86.86-.86,2.27,0,3.13.43.43,1,.65,1.57.65s1.14-.22,1.57-.65l33.11-33.11c.86-.86.86-2.27,0-3.13-.86-.86-2.27-.86-3.13,0h0Z"/>
          <path class="cls-1" d="M787.82,544.04l-33.11,33.11c-.86.86-.86,2.27,0,3.13.43.43,1,.65,1.57.65s1.14-.22,1.57-.65l33.11-33.11c.86-.86.86-2.27,0-3.13-.86-.86-2.27-.86-3.13,0Z"/>
          <path class="cls-1" d="M837.88,544.04l-33.12,33.11c-.86.86-.86,2.27,0,3.13.43.43,1,.65,1.57.65s1.14-.22,1.57-.65l33.12-33.11c.86-.86.86-2.27,0-3.13-.86-.86-2.27-.86-3.13,0h0Z"/>
          <path class="cls-1" d="M887.94,544.04l-33.12,33.11c-.86.86-.86,2.27,0,3.13.43.43,1,.65,1.57.65s1.14-.22,1.57-.65l33.12-33.11c.86-.86.86-2.27,0-3.13-.86-.86-2.27-.86-3.13,0h0Z"/>
          <path class="cls-1" d="M938,544.04l-33.12,33.11c-.86.86-.86,2.27,0,3.13.43.43,1,.65,1.57.65s1.14-.22,1.57-.65l33.12-33.11c.86-.86.86-2.27,0-3.13-.86-.86-2.27-.86-3.13,0h0Z"/>
          <path class="cls-1" d="M956.51,580.93c.57,0,1.14-.22,1.57-.65l33.12-33.11c.86-.86.86-2.27,0-3.13-.86-.86-2.27-.86-3.13,0l-33.12,33.11c-.86.86-.86,2.27,0,3.13.43.43,1,.65,1.57.65h0Z"/>
          <path class="cls-1" d="M958.08,611.31c-.86-.86-2.27-.86-3.13,0s-.86,2.27,0,3.13l33.12,33.11c.43.43,1,.65,1.57.65s1.14-.22,1.57-.65c.86-.86.86-2.27,0-3.13l-33.12-33.11h0Z"/>
          <path class="cls-1" d="M908.02,611.31c-.86-.86-2.27-.86-3.13,0s-.86,2.27,0,3.13l33.12,33.11c.43.43,1,.65,1.57.65s1.14-.22,1.57-.65c.86-.86.86-2.27,0-3.13l-33.12-33.11h0Z"/>
          <path class="cls-1" d="M857.97,611.31c-.86-.86-2.27-.86-3.13,0s-.86,2.27,0,3.13l33.12,33.11c.43.43,1,.65,1.57.65s1.14-.22,1.57-.65c.86-.86.86-2.27,0-3.13l-33.12-33.11h0Z"/>
          <path class="cls-1" d="M807.9,611.31c-.86-.86-2.27-.86-3.13,0s-.86,2.27,0,3.13l33.12,33.11c.43.43,1,.65,1.57.65s1.14-.22,1.57-.65c.86-.86.86-2.27,0-3.13l-33.12-33.11h0Z"/>
          <path class="cls-1" d="M757.84,611.31c-.86-.86-2.27-.86-3.13,0-.86.86-.86,2.27,0,3.13l33.11,33.11c.43.43,1,.65,1.57.65s1.14-.22,1.57-.65c.86-.86.86-2.27,0-3.13l-33.11-33.11h0Z"/>
          <path class="cls-1" d="M707.78,611.31c-.86-.86-2.27-.86-3.13,0-.86.86-.86,2.27,0,3.13l33.11,33.11c.43.43,1,.65,1.57.65s1.14-.22,1.57-.65c.86-.86.86-2.27,0-3.13l-33.11-33.11h0Z"/>
          <path class="cls-1" d="M657.72,611.31c-.86-.86-2.27-.86-3.13,0-.86.86-.86,2.27,0,3.13l33.12,33.11c.43.43,1,.65,1.57.65s1.14-.22,1.57-.65c.86-.86.86-2.27,0-3.13l-33.12-33.11h0Z"/>
          <path class="cls-1" d="M607.67,611.31c-.86-.86-2.27-.86-3.13,0-.86.86-.86,2.27,0,3.13l33.12,33.11c.43.43,1,.65,1.57.65s1.14-.22,1.57-.65c.86-.86.86-2.27,0-3.13,0,0-33.12-33.11-33.12-33.11Z"/>
          <path class="cls-1" d="M557.61,611.31c-.86-.86-2.27-.86-3.13,0-.86.86-.86,2.27,0,3.13l33.12,33.11c.43.43,1,.65,1.57.65s1.14-.22,1.57-.65c.86-.86.86-2.27,0-3.13,0,0-33.12-33.11-33.12-33.11Z"/>
          <path class="cls-1" d="M507.55,611.31c-.86-.86-2.27-.86-3.13,0-.86.86-.86,2.27,0,3.13l33.12,33.11c.43.43,1,.65,1.57.65s1.14-.22,1.57-.65c.86-.86.86-2.27,0-3.13l-33.12-33.11Z"/>
          <path class="cls-1" d="M537.53,678.59l-33.11,33.11c-.86.86-.86,2.27,0,3.13.43.43,1,.65,1.57.65s1.14-.22,1.57-.65l33.12-33.12c.86-.86.86-2.27,0-3.13-.86-.86-2.27-.86-3.13,0h-.01Z"/>
          <path class="cls-1" d="M587.59,678.59l-33.12,33.12c-.86.86-.86,2.27,0,3.13.43.43,1,.65,1.57.65s1.14-.22,1.57-.65l33.12-33.12c.86-.86.86-2.27,0-3.13-.86-.86-2.27-.86-3.13,0Z"/>
          <path class="cls-1" d="M637.65,678.59l-33.12,33.12c-.86.86-.86,2.27,0,3.13.43.43,1,.65,1.57.65s1.14-.22,1.57-.65l33.12-33.12c.86-.86.86-2.27,0-3.13-.86-.86-2.27-.86-3.13,0Z"/>
          <path class="cls-1" d="M687.71,678.59l-33.12,33.12c-.86.86-.86,2.27,0,3.13.43.43,1,.65,1.57.65s1.14-.22,1.57-.65l33.12-33.12c.86-.86.86-2.27,0-3.13-.86-.86-2.27-.86-3.13,0h0Z"/>
          <path class="cls-1" d="M737.76,678.59l-33.11,33.12c-.86.86-.86,2.27,0,3.13.43.43,1,.65,1.57.65s1.14-.22,1.57-.65l33.11-33.12c.86-.86.86-2.27,0-3.13-.86-.86-2.27-.86-3.13,0h0Z"/>
          <path class="cls-1" d="M787.82,678.59l-33.11,33.12c-.86.86-.86,2.27,0,3.13.43.43,1,.65,1.57.65s1.14-.22,1.57-.65l33.11-33.12c.86-.86.86-2.27,0-3.13-.86-.86-2.27-.86-3.13,0Z"/>
          <path class="cls-1" d="M837.88,678.59l-33.12,33.12c-.86.86-.86,2.27,0,3.13.43.43,1,.65,1.57.65s1.14-.22,1.57-.65l33.12-33.12c.86-.86.86-2.27,0-3.13-.86-.86-2.27-.86-3.13,0h0Z"/>
          <path class="cls-1" d="M887.94,678.59l-33.12,33.12c-.86.86-.86,2.27,0,3.13.43.43,1,.65,1.57.65s1.14-.22,1.57-.65l33.12-33.12c.86-.86.86-2.27,0-3.13-.86-.86-2.27-.86-3.13,0h0Z"/>
          <path class="cls-1" d="M938,678.59l-33.12,33.12c-.86.86-.86,2.27,0,3.13.43.43,1,.65,1.57.65s1.14-.22,1.57-.65l33.12-33.12c.86-.86.86-2.27,0-3.13-.86-.86-2.27-.86-3.13,0h0Z"/>
          <path class="cls-1" d="M988.05,678.59l-33.12,33.12c-.86.86-.86,2.27,0,3.13.43.43,1,.65,1.57.65s1.14-.22,1.57-.65l33.12-33.12c.86-.86.86-2.27,0-3.13-.86-.86-2.27-.86-3.13,0h0Z"/>
          <path class="cls-1" d="M958.08,745.87c-.86-.86-2.27-.86-3.13,0s-.86,2.27,0,3.13l33.12,33.11c.43.43,1,.65,1.57.65s1.14-.22,1.57-.65c.86-.86.86-2.27,0-3.13l-33.12-33.11h0Z"/>
          <path class="cls-1" d="M908.02,745.87c-.86-.86-2.27-.86-3.13,0s-.86,2.27,0,3.13l33.12,33.11c.43.43,1,.65,1.57.65s1.14-.22,1.57-.65c.86-.86.86-2.27,0-3.13l-33.12-33.11h0Z"/>
          <path class="cls-1" d="M857.97,745.87c-.86-.86-2.27-.86-3.13,0s-.86,2.27,0,3.13l33.12,33.11c.43.43,1,.65,1.57.65s1.14-.22,1.57-.65c.86-.86.86-2.27,0-3.13l-33.12-33.11h0Z"/>
          <path class="cls-1" d="M807.9,745.87c-.86-.86-2.27-.86-3.13,0s-.86,2.27,0,3.13l33.12,33.11c.43.43,1,.65,1.57.65s1.14-.22,1.57-.65c.86-.86.86-2.27,0-3.13l-33.12-33.11h0Z"/>
          <path class="cls-1" d="M757.84,745.87c-.86-.86-2.27-.86-3.13,0-.86.86-.86,2.27,0,3.13l33.11,33.11c.43.43,1,.65,1.57.65s1.14-.22,1.57-.65c.86-.86.86-2.27,0-3.13l-33.11-33.11h0Z"/>
          <path class="cls-1" d="M707.78,745.87c-.86-.86-2.27-.86-3.13,0-.86.86-.86,2.27,0,3.13l33.11,33.11c.43.43,1,.65,1.57.65s1.14-.22,1.57-.65c.86-.86.86-2.27,0-3.13l-33.11-33.11h0Z"/>
          <path class="cls-1" d="M657.72,745.87c-.86-.86-2.27-.86-3.13,0-.86.86-.86,2.27,0,3.13l33.12,33.11c.43.43,1,.65,1.57.65s1.14-.22,1.57-.65c.86-.86.86-2.27,0-3.13l-33.12-33.11h0Z"/>
          <path class="cls-1" d="M607.67,745.87c-.86-.86-2.27-.86-3.13,0-.86.86-.86,2.27,0,3.13l33.12,33.11c.43.43,1,.65,1.57.65s1.14-.22,1.57-.65c.86-.86.86-2.27,0-3.13,0,0-33.12-33.11-33.12-33.11Z"/>
          <path class="cls-1" d="M557.61,745.87c-.86-.86-2.27-.86-3.13,0-.86.86-.86,2.27,0,3.13l33.12,33.11c.43.43,1,.65,1.57.65s1.14-.22,1.57-.65c.86-.86.86-2.27,0-3.13,0,0-33.12-33.11-33.12-33.11Z"/>
          <path class="cls-1" d="M507.55,745.87c-.86-.86-2.27-.86-3.13,0-.86.86-.86,2.27,0,3.13l33.12,33.11c.43.43,1,.65,1.57.65s1.14-.22,1.57-.65c.86-.86.86-2.27,0-3.13,0,0-33.12-33.11-33.12-33.11Z"/>
        </g>
      </g>
    </g>
  </g>
</svg>