<?xml version="1.0" encoding="UTF-8"?>
<svg id="Layer_2" data-name="Layer 2" xmlns="http://www.w3.org/2000/svg" viewBox="0 0 778.7 784.47">
  <defs>
    <style>
      .cls-1 {
        fill: #f1f1ed;
      }

      .cls-2 {
        opacity: .8;
      }
    </style>
  </defs>
  <g id="Layer_1-2" data-name="Layer 1">
    <g>
      <g id="Graphics">
        <g class="cls-2">
          <g>
            <path class="cls-1" d="M535.4,26.31c0,5.52-1.61,10.65-4.35,15.01l-31.4-31.4c-2.48-2.48-6.5-2.48-8.98,0-2.48,2.48-2.48,6.5,0,8.98l31.4,31.4c-4.36,2.74-9.49,4.35-15.01,4.35h-26.31v12.71h26.31c22.63,0,41.05-18.41,41.05-41.05V0h-12.71v26.31Z"/>
            <path class="cls-1" d="M594.24,54.65c-5.52,0-10.65-1.61-15.01-4.35l31.4-31.4c2.48-2.48,2.48-6.5,0-8.98-2.48-2.48-6.5-2.48-8.98,0l-31.4,31.4c-2.74-4.36-4.35-9.49-4.35-15.01V0h-12.71v26.31c0,22.63,18.41,41.05,41.05,41.05h26.31v-12.71h-26.31Z"/>
            <path class="cls-1" d="M553.2,113.02v26.31h12.71v-26.31c0-5.52,1.61-10.65,4.35-15.01l31.4,31.4c1.24,1.24,2.87,1.86,4.49,1.86s3.25-.62,4.49-1.86c2.48-2.48,2.48-6.5,0-8.98l-31.4-31.4c4.36-2.74,9.49-4.35,15.01-4.35h26.31v-12.71h-26.31c-22.63,0-41.05,18.41-41.05,41.05Z"/>
            <path class="cls-1" d="M507.06,71.97h-26.31v12.71h26.31c5.52,0,10.65,1.61,15.01,4.35l-31.4,31.4c-2.48,2.48-2.48,6.5,0,8.98,1.24,1.24,2.87,1.86,4.49,1.86s3.25-.62,4.49-1.86l31.4-31.4c2.74,4.36,4.35,9.49,4.35,15.01v26.31h12.71v-26.31c0-22.63-18.41-41.05-41.05-41.05Z"/>
          </g>
        </g>
        <g class="cls-2">
          <g>
            <path class="cls-1" d="M375.15,26.31c0,5.52-1.61,10.65-4.35,15.01l-31.4-31.4c-2.48-2.48-6.5-2.48-8.98,0-2.48,2.48-2.48,6.5,0,8.98l31.4,31.4c-4.36,2.74-9.49,4.35-15.01,4.35h-26.31v12.71h26.31c22.63,0,41.05-18.41,41.05-41.05V0h-12.71v26.31Z"/>
            <path class="cls-1" d="M433.99,54.65c-5.52,0-10.65-1.61-15.01-4.35l31.4-31.4c2.48-2.48,2.48-6.5,0-8.98-2.48-2.48-6.5-2.48-8.98,0l-31.4,31.4c-2.74-4.36-4.35-9.49-4.35-15.01V0h-12.71v26.31c0,22.63,18.41,41.05,41.05,41.05h26.31v-12.71h-26.31Z"/>
            <path class="cls-1" d="M392.95,113.02v26.31h12.71v-26.31c0-5.52,1.61-10.65,4.35-15.01l31.4,31.4c1.24,1.24,2.87,1.86,4.49,1.86s3.25-.62,4.49-1.86c2.48-2.48,2.48-6.5,0-8.98l-31.4-31.4c4.36-2.74,9.49-4.35,15.01-4.35h26.31v-12.71h-26.31c-22.63,0-41.05,18.41-41.05,41.05Z"/>
            <path class="cls-1" d="M346.81,71.97h-26.31v12.71h26.31c5.52,0,10.65,1.61,15.01,4.35l-31.4,31.4c-2.48,2.48-2.48,6.5,0,8.98,1.24,1.24,2.87,1.86,4.49,1.86s3.25-.62,4.49-1.86l31.4-31.4c2.74,4.36,4.35,9.49,4.35,15.01v26.31h12.71v-26.31c0-22.63-18.41-41.05-41.05-41.05Z"/>
          </g>
        </g>
        <g class="cls-2">
          <g>
            <path class="cls-1" d="M214.9,26.31c0,5.52-1.61,10.65-4.35,15.01l-31.4-31.4c-2.48-2.48-6.5-2.48-8.98,0-2.48,2.48-2.48,6.5,0,8.98l31.4,31.4c-4.36,2.74-9.49,4.35-15.01,4.35h-26.31v12.71h26.31c22.63,0,41.05-18.41,41.05-41.05V0h-12.71v26.31Z"/>
            <path class="cls-1" d="M273.74,54.65c-5.52,0-10.65-1.61-15.01-4.35l31.4-31.4c2.48-2.48,2.48-6.5,0-8.98-2.48-2.48-6.5-2.48-8.98,0l-31.4,31.4c-2.74-4.36-4.35-9.49-4.35-15.01V0h-12.71v26.31c0,22.63,18.41,41.05,41.05,41.05h26.31v-12.71h-26.31Z"/>
            <path class="cls-1" d="M232.7,113.02v26.31h12.71v-26.31c0-5.52,1.61-10.65,4.35-15.01l31.4,31.4c1.24,1.24,2.87,1.86,4.49,1.86s3.25-.62,4.49-1.86c2.48-2.48,2.48-6.5,0-8.98l-31.4-31.4c4.36-2.74,9.49-4.35,15.01-4.35h26.31v-12.71h-26.31c-22.63,0-41.05,18.41-41.05,41.05Z"/>
            <path class="cls-1" d="M186.56,71.97h-26.31v12.71h26.31c5.52,0,10.65,1.61,15.01,4.35l-31.4,31.4c-2.48,2.48-2.48,6.5,0,8.98,1.24,1.24,2.87,1.86,4.49,1.86s3.25-.62,4.49-1.86l31.4-31.4c2.74,4.36,4.35,9.49,4.35,15.01v26.31h12.71v-26.31c0-22.63-18.41-41.05-41.05-41.05Z"/>
          </g>
        </g>
        <g class="cls-2">
          <g>
            <path class="cls-1" d="M54.65,26.31c0,5.52-1.61,10.65-4.35,15.01L18.9,9.92c-2.48-2.48-6.5-2.48-8.98,0-2.48,2.48-2.48,6.5,0,8.98l31.4,31.4c-4.36,2.74-9.49,4.35-15.01,4.35H0v12.71h26.31c22.63,0,41.05-18.41,41.05-41.05V0h-12.71v26.31Z"/>
            <path class="cls-1" d="M113.49,54.65c-5.52,0-10.65-1.61-15.01-4.35l31.4-31.4c2.48-2.48,2.48-6.5,0-8.98-2.48-2.48-6.5-2.48-8.98,0l-31.4,31.4c-2.74-4.36-4.35-9.49-4.35-15.01V0h-12.71v26.31c0,22.63,18.41,41.05,41.05,41.05h26.31v-12.71h-26.31Z"/>
            <path class="cls-1" d="M72.45,113.02v26.31h12.71v-26.31c0-5.52,1.61-10.65,4.35-15.01l31.4,31.4c1.24,1.24,2.87,1.86,4.49,1.86s3.25-.62,4.49-1.86c2.48-2.48,2.48-6.5,0-8.98l-31.4-31.4c4.36-2.74,9.49-4.35,15.01-4.35h26.31v-12.71h-26.31c-22.63,0-41.05,18.41-41.05,41.05Z"/>
            <path class="cls-1" d="M26.31,71.97H0v12.71h26.31c5.52,0,10.65,1.61,15.01,4.35l-31.4,31.4c-2.48,2.48-2.48,6.5,0,8.98,1.24,1.24,2.87,1.86,4.49,1.86s3.25-.62,4.49-1.86l31.4-31.4c2.74,4.36,4.35,9.49,4.35,15.01v26.31h12.71v-26.31c0-22.63-18.41-41.05-41.05-41.05Z"/>
          </g>
        </g>
      </g>
      <g id="Graphics-2" data-name="Graphics">
        <g class="cls-2">
          <g>
            <path class="cls-1" d="M535.4,186.85c0,5.52-1.61,10.65-4.35,15.01l-31.4-31.4c-2.48-2.48-6.5-2.48-8.98,0-2.48,2.48-2.48,6.5,0,8.98l31.4,31.4c-4.36,2.74-9.49,4.35-15.01,4.35h-26.31v12.71h26.31c22.63,0,41.05-18.41,41.05-41.05v-26.31h-12.71v26.31Z"/>
            <path class="cls-1" d="M594.24,215.19c-5.52,0-10.65-1.61-15.01-4.35l31.4-31.4c2.48-2.48,2.48-6.5,0-8.98-2.48-2.48-6.5-2.48-8.98,0l-31.4,31.4c-2.74-4.36-4.35-9.49-4.35-15.01v-26.31h-12.71v26.31c0,22.63,18.41,41.05,41.05,41.05h26.31v-12.71h-26.31Z"/>
            <path class="cls-1" d="M553.2,273.56v26.31h12.71v-26.31c0-5.52,1.61-10.65,4.35-15.01l31.4,31.4c1.24,1.24,2.87,1.86,4.49,1.86s3.25-.62,4.49-1.86c2.48-2.48,2.48-6.5,0-8.98l-31.4-31.4c4.36-2.74,9.49-4.35,15.01-4.35h26.31v-12.71h-26.31c-22.63,0-41.05,18.41-41.05,41.05Z"/>
            <path class="cls-1" d="M507.06,232.51h-26.31v12.71h26.31c5.52,0,10.65,1.61,15.01,4.35l-31.4,31.4c-2.48,2.48-2.48,6.5,0,8.98,1.24,1.24,2.87,1.86,4.49,1.86s3.25-.62,4.49-1.86l31.4-31.4c2.74,4.36,4.35,9.49,4.35,15.01v26.31h12.71v-26.31c0-22.63-18.41-41.05-41.05-41.05Z"/>
          </g>
        </g>
        <g class="cls-2">
          <g>
            <path class="cls-1" d="M375.15,186.85c0,5.52-1.61,10.65-4.35,15.01l-31.4-31.4c-2.48-2.48-6.5-2.48-8.98,0-2.48,2.48-2.48,6.5,0,8.98l31.4,31.4c-4.36,2.74-9.49,4.35-15.01,4.35h-26.31v12.71h26.31c22.63,0,41.05-18.41,41.05-41.05v-26.31h-12.71v26.31Z"/>
            <path class="cls-1" d="M433.99,215.19c-5.52,0-10.65-1.61-15.01-4.35l31.4-31.4c2.48-2.48,2.48-6.5,0-8.98-2.48-2.48-6.5-2.48-8.98,0l-31.4,31.4c-2.74-4.36-4.35-9.49-4.35-15.01v-26.31h-12.71v26.31c0,22.63,18.41,41.05,41.05,41.05h26.31v-12.71h-26.31Z"/>
            <path class="cls-1" d="M392.95,273.56v26.31h12.71v-26.31c0-5.52,1.61-10.65,4.35-15.01l31.4,31.4c1.24,1.24,2.87,1.86,4.49,1.86s3.25-.62,4.49-1.86c2.48-2.48,2.48-6.5,0-8.98l-31.4-31.4c4.36-2.74,9.49-4.35,15.01-4.35h26.31v-12.71h-26.31c-22.63,0-41.05,18.41-41.05,41.05Z"/>
            <path class="cls-1" d="M346.81,232.51h-26.31v12.71h26.31c5.52,0,10.65,1.61,15.01,4.35l-31.4,31.4c-2.48,2.48-2.48,6.5,0,8.98,1.24,1.24,2.87,1.86,4.49,1.86s3.25-.62,4.49-1.86l31.4-31.4c2.74,4.36,4.35,9.49,4.35,15.01v26.31h12.71v-26.31c0-22.63-18.41-41.05-41.05-41.05Z"/>
          </g>
        </g>
        <g class="cls-2">
          <g>
            <path class="cls-1" d="M214.9,186.85c0,5.52-1.61,10.65-4.35,15.01l-31.4-31.4c-2.48-2.48-6.5-2.48-8.98,0-2.48,2.48-2.48,6.5,0,8.98l31.4,31.4c-4.36,2.74-9.49,4.35-15.01,4.35h-26.31v12.71h26.31c22.63,0,41.05-18.41,41.05-41.05v-26.31h-12.71v26.31Z"/>
            <path class="cls-1" d="M273.74,215.19c-5.52,0-10.65-1.61-15.01-4.35l31.4-31.4c2.48-2.48,2.48-6.5,0-8.98-2.48-2.48-6.5-2.48-8.98,0l-31.4,31.4c-2.74-4.36-4.35-9.49-4.35-15.01v-26.31h-12.71v26.31c0,22.63,18.41,41.05,41.05,41.05h26.31v-12.71h-26.31Z"/>
            <path class="cls-1" d="M232.7,273.56v26.31h12.71v-26.31c0-5.52,1.61-10.65,4.35-15.01l31.4,31.4c1.24,1.24,2.87,1.86,4.49,1.86s3.25-.62,4.49-1.86c2.48-2.48,2.48-6.5,0-8.98l-31.4-31.4c4.36-2.74,9.49-4.35,15.01-4.35h26.31v-12.71h-26.31c-22.63,0-41.05,18.41-41.05,41.05Z"/>
            <path class="cls-1" d="M186.56,232.51h-26.31v12.71h26.31c5.52,0,10.65,1.61,15.01,4.35l-31.4,31.4c-2.48,2.48-2.48,6.5,0,8.98,1.24,1.24,2.87,1.86,4.49,1.86s3.25-.62,4.49-1.86l31.4-31.4c2.74,4.36,4.35,9.49,4.35,15.01v26.31h12.71v-26.31c0-22.63-18.41-41.05-41.05-41.05Z"/>
          </g>
        </g>
        <g class="cls-2">
          <g>
            <path class="cls-1" d="M54.65,186.85c0,5.52-1.61,10.65-4.35,15.01l-31.4-31.4c-2.48-2.48-6.5-2.48-8.98,0-2.48,2.48-2.48,6.5,0,8.98l31.4,31.4c-4.36,2.74-9.49,4.35-15.01,4.35H0v12.71h26.31c22.63,0,41.05-18.41,41.05-41.05v-26.31h-12.71v26.31Z"/>
            <path class="cls-1" d="M113.49,215.19c-5.52,0-10.65-1.61-15.01-4.35l31.4-31.4c2.48-2.48,2.48-6.5,0-8.98-2.48-2.48-6.5-2.48-8.98,0l-31.4,31.4c-2.74-4.36-4.35-9.49-4.35-15.01v-26.31h-12.71v26.31c0,22.63,18.41,41.05,41.05,41.05h26.31v-12.71h-26.31Z"/>
            <path class="cls-1" d="M72.45,273.56v26.31h12.71v-26.31c0-5.52,1.61-10.65,4.35-15.01l31.4,31.4c1.24,1.24,2.87,1.86,4.49,1.86s3.25-.62,4.49-1.86c2.48-2.48,2.48-6.5,0-8.98l-31.4-31.4c4.36-2.74,9.49-4.35,15.01-4.35h26.31v-12.71h-26.31c-22.63,0-41.05,18.41-41.05,41.05Z"/>
            <path class="cls-1" d="M26.31,232.51H0v12.71h26.31c5.52,0,10.65,1.61,15.01,4.35l-31.4,31.4c-2.48,2.48-2.48,6.5,0,8.98,1.24,1.24,2.87,1.86,4.49,1.86s3.25-.62,4.49-1.86l31.4-31.4c2.74,4.36,4.35,9.49,4.35,15.01v26.31h12.71v-26.31c0-22.63-18.41-41.05-41.05-41.05Z"/>
          </g>
        </g>
      </g>
      <g id="Graphics-3" data-name="Graphics">
        <g class="cls-2">
          <g>
            <path class="cls-1" d="M535.4,349.18c0,5.52-1.61,10.65-4.35,15.01l-31.4-31.4c-2.48-2.48-6.5-2.48-8.98,0-2.48,2.48-2.48,6.5,0,8.98l31.4,31.4c-4.36,2.74-9.49,4.35-15.01,4.35h-26.31v12.71h26.31c22.63,0,41.05-18.41,41.05-41.05v-26.31h-12.71v26.31Z"/>
            <path class="cls-1" d="M594.24,377.52c-5.52,0-10.65-1.61-15.01-4.35l31.4-31.4c2.48-2.48,2.48-6.5,0-8.98-2.48-2.48-6.5-2.48-8.98,0l-31.4,31.4c-2.74-4.36-4.35-9.49-4.35-15.01v-26.31h-12.71v26.31c0,22.63,18.41,41.05,41.05,41.05h26.31v-12.71h-26.31Z"/>
            <path class="cls-1" d="M553.2,435.89v26.31h12.71v-26.31c0-5.52,1.61-10.65,4.35-15.01l31.4,31.4c1.24,1.24,2.87,1.86,4.49,1.86s3.25-.62,4.49-1.86c2.48-2.48,2.48-6.5,0-8.98l-31.4-31.4c4.36-2.74,9.49-4.35,15.01-4.35h26.31v-12.71h-26.31c-22.63,0-41.05,18.41-41.05,41.05Z"/>
            <path class="cls-1" d="M507.06,394.84h-26.31v12.71h26.31c5.52,0,10.65,1.61,15.01,4.35l-31.4,31.4c-2.48,2.48-2.48,6.5,0,8.98,1.24,1.24,2.87,1.86,4.49,1.86s3.25-.62,4.49-1.86l31.4-31.4c2.74,4.36,4.35,9.49,4.35,15.01v26.31h12.71v-26.31c0-22.63-18.41-41.05-41.05-41.05Z"/>
          </g>
        </g>
        <g class="cls-2">
          <g>
            <path class="cls-1" d="M375.15,349.18c0,5.52-1.61,10.65-4.35,15.01l-31.4-31.4c-2.48-2.48-6.5-2.48-8.98,0-2.48,2.48-2.48,6.5,0,8.98l31.4,31.4c-4.36,2.74-9.49,4.35-15.01,4.35h-26.31v12.71h26.31c22.63,0,41.05-18.41,41.05-41.05v-26.31h-12.71v26.31Z"/>
            <path class="cls-1" d="M433.99,377.52c-5.52,0-10.65-1.61-15.01-4.35l31.4-31.4c2.48-2.48,2.48-6.5,0-8.98-2.48-2.48-6.5-2.48-8.98,0l-31.4,31.4c-2.74-4.36-4.35-9.49-4.35-15.01v-26.31h-12.71v26.31c0,22.63,18.41,41.05,41.05,41.05h26.31v-12.71h-26.31Z"/>
            <path class="cls-1" d="M392.95,435.89v26.31h12.71v-26.31c0-5.52,1.61-10.65,4.35-15.01l31.4,31.4c1.24,1.24,2.87,1.86,4.49,1.86s3.25-.62,4.49-1.86c2.48-2.48,2.48-6.5,0-8.98l-31.4-31.4c4.36-2.74,9.49-4.35,15.01-4.35h26.31v-12.71h-26.31c-22.63,0-41.05,18.41-41.05,41.05Z"/>
            <path class="cls-1" d="M346.81,394.84h-26.31v12.71h26.31c5.52,0,10.65,1.61,15.01,4.35l-31.4,31.4c-2.48,2.48-2.48,6.5,0,8.98,1.24,1.24,2.87,1.86,4.49,1.86s3.25-.62,4.49-1.86l31.4-31.4c2.74,4.36,4.35,9.49,4.35,15.01v26.31h12.71v-26.31c0-22.63-18.41-41.05-41.05-41.05Z"/>
          </g>
        </g>
        <g class="cls-2">
          <g>
            <path class="cls-1" d="M214.9,349.18c0,5.52-1.61,10.65-4.35,15.01l-31.4-31.4c-2.48-2.48-6.5-2.48-8.98,0-2.48,2.48-2.48,6.5,0,8.98l31.4,31.4c-4.36,2.74-9.49,4.35-15.01,4.35h-26.31v12.71h26.31c22.63,0,41.05-18.41,41.05-41.05v-26.31h-12.71v26.31Z"/>
            <path class="cls-1" d="M273.74,377.52c-5.52,0-10.65-1.61-15.01-4.35l31.4-31.4c2.48-2.48,2.48-6.5,0-8.98-2.48-2.48-6.5-2.48-8.98,0l-31.4,31.4c-2.74-4.36-4.35-9.49-4.35-15.01v-26.31h-12.71v26.31c0,22.63,18.41,41.05,41.05,41.05h26.31v-12.71h-26.31Z"/>
            <path class="cls-1" d="M232.7,435.89v26.31h12.71v-26.31c0-5.52,1.61-10.65,4.35-15.01l31.4,31.4c1.24,1.24,2.87,1.86,4.49,1.86s3.25-.62,4.49-1.86c2.48-2.48,2.48-6.5,0-8.98l-31.4-31.4c4.36-2.74,9.49-4.35,15.01-4.35h26.31v-12.71h-26.31c-22.63,0-41.05,18.41-41.05,41.05Z"/>
            <path class="cls-1" d="M186.56,394.84h-26.31v12.71h26.31c5.52,0,10.65,1.61,15.01,4.35l-31.4,31.4c-2.48,2.48-2.48,6.5,0,8.98,1.24,1.24,2.87,1.86,4.49,1.86s3.25-.62,4.49-1.86l31.4-31.4c2.74,4.36,4.35,9.49,4.35,15.01v26.31h12.71v-26.31c0-22.63-18.41-41.05-41.05-41.05Z"/>
          </g>
        </g>
        <g class="cls-2">
          <g>
            <path class="cls-1" d="M54.65,349.18c0,5.52-1.61,10.65-4.35,15.01l-31.4-31.4c-2.48-2.48-6.5-2.48-8.98,0-2.48,2.48-2.48,6.5,0,8.98l31.4,31.4c-4.36,2.74-9.49,4.35-15.01,4.35H0v12.71h26.31c22.63,0,41.05-18.41,41.05-41.05v-26.31h-12.71v26.31Z"/>
            <path class="cls-1" d="M113.49,377.52c-5.52,0-10.65-1.61-15.01-4.35l31.4-31.4c2.48-2.48,2.48-6.5,0-8.98-2.48-2.48-6.5-2.48-8.98,0l-31.4,31.4c-2.74-4.36-4.35-9.49-4.35-15.01v-26.31h-12.71v26.31c0,22.63,18.41,41.05,41.05,41.05h26.31v-12.71h-26.31Z"/>
            <path class="cls-1" d="M72.45,435.89v26.31h12.71v-26.31c0-5.52,1.61-10.65,4.35-15.01l31.4,31.4c1.24,1.24,2.87,1.86,4.49,1.86s3.25-.62,4.49-1.86c2.48-2.48,2.48-6.5,0-8.98l-31.4-31.4c4.36-2.74,9.49-4.35,15.01-4.35h26.31v-12.71h-26.31c-22.63,0-41.05,18.41-41.05,41.05Z"/>
            <path class="cls-1" d="M26.31,394.84H0v12.71h26.31c5.52,0,10.65,1.61,15.01,4.35l-31.4,31.4c-2.48,2.48-2.48,6.5,0,8.98,1.24,1.24,2.87,1.86,4.49,1.86s3.25-.62,4.49-1.86l31.4-31.4c2.74,4.36,4.35,9.49,4.35,15.01v26.31h12.71v-26.31c0-22.63-18.41-41.05-41.05-41.05Z"/>
          </g>
        </g>
      </g>
      <g id="Graphics-4" data-name="Graphics">
        <g class="cls-2">
          <g>
            <path class="cls-1" d="M535.4,513.6c0,5.52-1.61,10.65-4.35,15.01l-31.4-31.4c-2.48-2.48-6.5-2.48-8.98,0-2.48,2.48-2.48,6.5,0,8.98l31.4,31.4c-4.36,2.74-9.49,4.35-15.01,4.35h-26.31v12.71h26.31c22.63,0,41.05-18.41,41.05-41.05v-26.31h-12.71v26.31Z"/>
            <path class="cls-1" d="M594.24,541.94c-5.52,0-10.65-1.61-15.01-4.35l31.4-31.4c2.48-2.48,2.48-6.5,0-8.98-2.48-2.48-6.5-2.48-8.98,0l-31.4,31.4c-2.74-4.36-4.35-9.49-4.35-15.01v-26.31h-12.71v26.31c0,22.63,18.41,41.05,41.05,41.05h26.31v-12.71h-26.31Z"/>
            <path class="cls-1" d="M553.2,600.31v26.31h12.71v-26.31c0-5.52,1.61-10.65,4.35-15.01l31.4,31.4c1.24,1.24,2.87,1.86,4.49,1.86s3.25-.62,4.49-1.86c2.48-2.48,2.48-6.5,0-8.98l-31.4-31.4c4.36-2.74,9.49-4.35,15.01-4.35h26.31v-12.71h-26.31c-22.63,0-41.05,18.41-41.05,41.05Z"/>
            <path class="cls-1" d="M507.06,559.26h-26.31v12.71h26.31c5.52,0,10.65,1.61,15.01,4.35l-31.4,31.4c-2.48,2.48-2.48,6.5,0,8.98,1.24,1.24,2.87,1.86,4.49,1.86s3.25-.62,4.49-1.86l31.4-31.4c2.74,4.36,4.35,9.49,4.35,15.01v26.31h12.71v-26.31c0-22.63-18.41-41.05-41.05-41.05Z"/>
          </g>
        </g>
        <g class="cls-2">
          <g>
            <path class="cls-1" d="M375.15,513.6c0,5.52-1.61,10.65-4.35,15.01l-31.4-31.4c-2.48-2.48-6.5-2.48-8.98,0-2.48,2.48-2.48,6.5,0,8.98l31.4,31.4c-4.36,2.74-9.49,4.35-15.01,4.35h-26.31v12.71h26.31c22.63,0,41.05-18.41,41.05-41.05v-26.31h-12.71v26.31Z"/>
            <path class="cls-1" d="M433.99,541.94c-5.52,0-10.65-1.61-15.01-4.35l31.4-31.4c2.48-2.48,2.48-6.5,0-8.98-2.48-2.48-6.5-2.48-8.98,0l-31.4,31.4c-2.74-4.36-4.35-9.49-4.35-15.01v-26.31h-12.71v26.31c0,22.63,18.41,41.05,41.05,41.05h26.31v-12.71h-26.31Z"/>
            <path class="cls-1" d="M392.95,600.31v26.31h12.71v-26.31c0-5.52,1.61-10.65,4.35-15.01l31.4,31.4c1.24,1.24,2.87,1.86,4.49,1.86s3.25-.62,4.49-1.86c2.48-2.48,2.48-6.5,0-8.98l-31.4-31.4c4.36-2.74,9.49-4.35,15.01-4.35h26.31v-12.71h-26.31c-22.63,0-41.05,18.41-41.05,41.05Z"/>
            <path class="cls-1" d="M346.81,559.26h-26.31v12.71h26.31c5.52,0,10.65,1.61,15.01,4.35l-31.4,31.4c-2.48,2.48-2.48,6.5,0,8.98,1.24,1.24,2.87,1.86,4.49,1.86s3.25-.62,4.49-1.86l31.4-31.4c2.74,4.36,4.35,9.49,4.35,15.01v26.31h12.71v-26.31c0-22.63-18.41-41.05-41.05-41.05Z"/>
          </g>
        </g>
        <g class="cls-2">
          <g>
            <path class="cls-1" d="M214.9,513.6c0,5.52-1.61,10.65-4.35,15.01l-31.4-31.4c-2.48-2.48-6.5-2.48-8.98,0-2.48,2.48-2.48,6.5,0,8.98l31.4,31.4c-4.36,2.74-9.49,4.35-15.01,4.35h-26.31v12.71h26.31c22.63,0,41.05-18.41,41.05-41.05v-26.31h-12.71v26.31Z"/>
            <path class="cls-1" d="M273.74,541.94c-5.52,0-10.65-1.61-15.01-4.35l31.4-31.4c2.48-2.48,2.48-6.5,0-8.98-2.48-2.48-6.5-2.48-8.98,0l-31.4,31.4c-2.74-4.36-4.35-9.49-4.35-15.01v-26.31h-12.71v26.31c0,22.63,18.41,41.05,41.05,41.05h26.31v-12.71h-26.31Z"/>
            <path class="cls-1" d="M232.7,600.31v26.31h12.71v-26.31c0-5.52,1.61-10.65,4.35-15.01l31.4,31.4c1.24,1.24,2.87,1.86,4.49,1.86s3.25-.62,4.49-1.86c2.48-2.48,2.48-6.5,0-8.98l-31.4-31.4c4.36-2.74,9.49-4.35,15.01-4.35h26.31v-12.71h-26.31c-22.63,0-41.05,18.41-41.05,41.05Z"/>
            <path class="cls-1" d="M186.56,559.26h-26.31v12.71h26.31c5.52,0,10.65,1.61,15.01,4.35l-31.4,31.4c-2.48,2.48-2.48,6.5,0,8.98,1.24,1.24,2.87,1.86,4.49,1.86s3.25-.62,4.49-1.86l31.4-31.4c2.74,4.36,4.35,9.49,4.35,15.01v26.31h12.71v-26.31c0-22.63-18.41-41.05-41.05-41.05Z"/>
          </g>
        </g>
        <g class="cls-2">
          <g>
            <path class="cls-1" d="M54.65,513.6c0,5.52-1.61,10.65-4.35,15.01l-31.4-31.4c-2.48-2.48-6.5-2.48-8.98,0-2.48,2.48-2.48,6.5,0,8.98l31.4,31.4c-4.36,2.74-9.49,4.35-15.01,4.35H0v12.71h26.31c22.63,0,41.05-18.41,41.05-41.05v-26.31h-12.71v26.31Z"/>
            <path class="cls-1" d="M113.49,541.94c-5.52,0-10.65-1.61-15.01-4.35l31.4-31.4c2.48-2.48,2.48-6.5,0-8.98-2.48-2.48-6.5-2.48-8.98,0l-31.4,31.4c-2.74-4.36-4.35-9.49-4.35-15.01v-26.31h-12.71v26.31c0,22.63,18.41,41.05,41.05,41.05h26.31v-12.71h-26.31Z"/>
            <path class="cls-1" d="M72.45,600.31v26.31h12.71v-26.31c0-5.52,1.61-10.65,4.35-15.01l31.4,31.4c1.24,1.24,2.87,1.86,4.49,1.86s3.25-.62,4.49-1.86c2.48-2.48,2.48-6.5,0-8.98l-31.4-31.4c4.36-2.74,9.49-4.35,15.01-4.35h26.31v-12.71h-26.31c-22.63,0-41.05,18.41-41.05,41.05Z"/>
            <path class="cls-1" d="M26.31,559.26H0v12.71h26.31c5.52,0,10.65,1.61,15.01,4.35l-31.4,31.4c-2.48,2.48-2.48,6.5,0,8.98,1.24,1.24,2.87,1.86,4.49,1.86s3.25-.62,4.49-1.86l31.4-31.4c2.74,4.36,4.35,9.49,4.35,15.01v26.31h12.71v-26.31c0-22.63-18.41-41.05-41.05-41.05Z"/>
          </g>
        </g>
      </g>
      <g id="Graphics-5" data-name="Graphics">
        <g class="cls-2">
          <g>
            <path class="cls-1" d="M535.4,671.45c0,5.52-1.61,10.65-4.35,15.01l-31.4-31.4c-2.48-2.48-6.5-2.48-8.98,0-2.48,2.48-2.48,6.5,0,8.98l31.4,31.4c-4.36,2.74-9.49,4.35-15.01,4.35h-26.31v12.71h26.31c22.63,0,41.05-18.41,41.05-41.05v-26.31h-12.71v26.31Z"/>
            <path class="cls-1" d="M594.24,699.79c-5.52,0-10.65-1.61-15.01-4.35l31.4-31.4c2.48-2.48,2.48-6.5,0-8.98-2.48-2.48-6.5-2.48-8.98,0l-31.4,31.4c-2.74-4.36-4.35-9.49-4.35-15.01v-26.31h-12.71v26.31c0,22.63,18.41,41.05,41.05,41.05h26.31v-12.71h-26.31Z"/>
            <path class="cls-1" d="M553.2,758.16v26.31h12.71v-26.31c0-5.52,1.61-10.65,4.35-15.01l31.4,31.4c1.24,1.24,2.87,1.86,4.49,1.86s3.25-.62,4.49-1.86c2.48-2.48,2.48-6.5,0-8.98l-31.4-31.4c4.36-2.74,9.49-4.35,15.01-4.35h26.31v-12.71h-26.31c-22.63,0-41.05,18.41-41.05,41.05Z"/>
            <path class="cls-1" d="M507.06,717.11h-26.31v12.71h26.31c5.52,0,10.65,1.61,15.01,4.35l-31.4,31.4c-2.48,2.48-2.48,6.5,0,8.98,1.24,1.24,2.87,1.86,4.49,1.86s3.25-.62,4.49-1.86l31.4-31.4c2.74,4.36,4.35,9.49,4.35,15.01v26.31h12.71v-26.31c0-22.63-18.41-41.05-41.05-41.05Z"/>
          </g>
        </g>
        <g class="cls-2">
          <g>
            <path class="cls-1" d="M375.15,671.45c0,5.52-1.61,10.65-4.35,15.01l-31.4-31.4c-2.48-2.48-6.5-2.48-8.98,0-2.48,2.48-2.48,6.5,0,8.98l31.4,31.4c-4.36,2.74-9.49,4.35-15.01,4.35h-26.31v12.71h26.31c22.63,0,41.05-18.41,41.05-41.05v-26.31h-12.71v26.31Z"/>
            <path class="cls-1" d="M433.99,699.79c-5.52,0-10.65-1.61-15.01-4.35l31.4-31.4c2.48-2.48,2.48-6.5,0-8.98-2.48-2.48-6.5-2.48-8.98,0l-31.4,31.4c-2.74-4.36-4.35-9.49-4.35-15.01v-26.31h-12.71v26.31c0,22.63,18.41,41.05,41.05,41.05h26.31v-12.71h-26.31Z"/>
            <path class="cls-1" d="M392.95,758.16v26.31h12.71v-26.31c0-5.52,1.61-10.65,4.35-15.01l31.4,31.4c1.24,1.24,2.87,1.86,4.49,1.86s3.25-.62,4.49-1.86c2.48-2.48,2.48-6.5,0-8.98l-31.4-31.4c4.36-2.74,9.49-4.35,15.01-4.35h26.31v-12.71h-26.31c-22.63,0-41.05,18.41-41.05,41.05Z"/>
            <path class="cls-1" d="M346.81,717.11h-26.31v12.71h26.31c5.52,0,10.65,1.61,15.01,4.35l-31.4,31.4c-2.48,2.48-2.48,6.5,0,8.98,1.24,1.24,2.87,1.86,4.49,1.86s3.25-.62,4.49-1.86l31.4-31.4c2.74,4.36,4.35,9.49,4.35,15.01v26.31h12.71v-26.31c0-22.63-18.41-41.05-41.05-41.05Z"/>
          </g>
        </g>
        <g class="cls-2">
          <g>
            <path class="cls-1" d="M214.9,671.45c0,5.52-1.61,10.65-4.35,15.01l-31.4-31.4c-2.48-2.48-6.5-2.48-8.98,0-2.48,2.48-2.48,6.5,0,8.98l31.4,31.4c-4.36,2.74-9.49,4.35-15.01,4.35h-26.31v12.71h26.31c22.63,0,41.05-18.41,41.05-41.05v-26.31h-12.71v26.31Z"/>
            <path class="cls-1" d="M273.74,699.79c-5.52,0-10.65-1.61-15.01-4.35l31.4-31.4c2.48-2.48,2.48-6.5,0-8.98-2.48-2.48-6.5-2.48-8.98,0l-31.4,31.4c-2.74-4.36-4.35-9.49-4.35-15.01v-26.31h-12.71v26.31c0,22.63,18.41,41.05,41.05,41.05h26.31v-12.71h-26.31Z"/>
            <path class="cls-1" d="M232.7,758.16v26.31h12.71v-26.31c0-5.52,1.61-10.65,4.35-15.01l31.4,31.4c1.24,1.24,2.87,1.86,4.49,1.86s3.25-.62,4.49-1.86c2.48-2.48,2.48-6.5,0-8.98l-31.4-31.4c4.36-2.74,9.49-4.35,15.01-4.35h26.31v-12.71h-26.31c-22.63,0-41.05,18.41-41.05,41.05Z"/>
            <path class="cls-1" d="M186.56,717.11h-26.31v12.71h26.31c5.52,0,10.65,1.61,15.01,4.35l-31.4,31.4c-2.48,2.48-2.48,6.5,0,8.98,1.24,1.24,2.87,1.86,4.49,1.86s3.25-.62,4.49-1.86l31.4-31.4c2.74,4.36,4.35,9.49,4.35,15.01v26.31h12.71v-26.31c0-22.63-18.41-41.05-41.05-41.05Z"/>
          </g>
        </g>
        <g class="cls-2">
          <g>
            <path class="cls-1" d="M54.65,671.45c0,5.52-1.61,10.65-4.35,15.01l-31.4-31.4c-2.48-2.48-6.5-2.48-8.98,0-2.48,2.48-2.48,6.5,0,8.98l31.4,31.4c-4.36,2.74-9.49,4.35-15.01,4.35H0v12.71h26.31c22.63,0,41.05-18.41,41.05-41.05v-26.31h-12.71v26.31Z"/>
            <path class="cls-1" d="M113.49,699.79c-5.52,0-10.65-1.61-15.01-4.35l31.4-31.4c2.48-2.48,2.48-6.5,0-8.98-2.48-2.48-6.5-2.48-8.98,0l-31.4,31.4c-2.74-4.36-4.35-9.49-4.35-15.01v-26.31h-12.71v26.31c0,22.63,18.41,41.05,41.05,41.05h26.31v-12.71h-26.31Z"/>
            <path class="cls-1" d="M72.45,758.16v26.31h12.71v-26.31c0-5.52,1.61-10.65,4.35-15.01l31.4,31.4c1.24,1.24,2.87,1.86,4.49,1.86s3.25-.62,4.49-1.86c2.48-2.48,2.48-6.5,0-8.98l-31.4-31.4c4.36-2.74,9.49-4.35,15.01-4.35h26.31v-12.71h-26.31c-22.63,0-41.05,18.41-41.05,41.05Z"/>
            <path class="cls-1" d="M26.31,717.11H0v12.71h26.31c5.52,0,10.65,1.61,15.01,4.35l-31.4,31.4c-2.48,2.48-2.48,6.5,0,8.98,1.24,1.24,2.87,1.86,4.49,1.86s3.25-.62,4.49-1.86l31.4-31.4c2.74,4.36,4.35,9.49,4.35,15.01v26.31h12.71v-26.31c0-22.63-18.41-41.05-41.05-41.05Z"/>
          </g>
        </g>
      </g>
      <g id="Graphics-6" data-name="Graphics">
        <g class="cls-2">
          <g>
            <path class="cls-1" d="M752.39,85.53c-5.52,0-10.65,1.61-15.01,4.35l31.4,31.4c2.48,2.48,2.48,6.5,0,8.98-2.48,2.48-6.5,2.48-8.98,0l-31.4-31.4c-2.74,4.36-4.35,9.49-4.35,15.01v26.31s-12.71,0-12.71,0v-26.31c0-22.63,18.41-41.05,41.05-41.05h26.31s0,12.71,0,12.71h-26.31Z"/>
            <path class="cls-1" d="M724.05,26.69c0,5.52,1.61,10.65,4.35,15.01l31.4-31.4c2.48-2.48,6.5-2.48,8.98,0,2.48,2.48,2.48,6.5,0,8.98l-31.4,31.4c4.36,2.74,9.49,4.35,15.01,4.35h26.31s0,12.71,0,12.71h-26.31c-22.63,0-41.05-18.41-41.05-41.05V.38s12.71,0,12.71,0v26.31Z"/>
            <path class="cls-1" d="M665.68,67.73h-26.31s0-12.71,0-12.71h26.31c5.52,0,10.65-1.61,15.01-4.35l-31.4-31.4c-1.24-1.24-1.86-2.87-1.86-4.49s.62-3.25,1.86-4.49c2.48-2.48,6.5-2.48,8.98,0l31.4,31.4c2.74-4.36,4.35-9.49,4.35-15.01V.37s12.71,0,12.71,0v26.31c0,22.63-18.41,41.05-41.05,41.05Z"/>
            <path class="cls-1" d="M706.73,113.87v26.31s-12.71,0-12.71,0v-26.31c0-5.52-1.61-10.65-4.35-15.01l-31.4,31.4c-2.48,2.48-6.5,2.48-8.98,0-1.24-1.24-1.86-2.87-1.86-4.49s.62-3.25,1.86-4.49l31.4-31.4c-4.36-2.74-9.49-4.35-15.01-4.35h-26.31s0-12.71,0-12.71h26.31c22.63,0,41.05,18.41,41.05,41.05Z"/>
          </g>
        </g>
        <g class="cls-2">
          <g>
            <path class="cls-1" d="M752.39,245.78c-5.52,0-10.65,1.61-15.01,4.35l31.4,31.4c2.48,2.48,2.48,6.5,0,8.98-2.48,2.48-6.5,2.48-8.98,0l-31.4-31.4c-2.74,4.36-4.35,9.49-4.35,15.01v26.31s-12.71,0-12.71,0v-26.31c0-22.63,18.41-41.05,41.05-41.05h26.31s0,12.71,0,12.71h-26.31Z"/>
            <path class="cls-1" d="M724.05,186.94c0,5.52,1.61,10.65,4.35,15.01l31.4-31.4c2.48-2.48,6.5-2.48,8.98,0,2.48,2.48,2.48,6.5,0,8.98l-31.4,31.4c4.36,2.74,9.49,4.35,15.01,4.35h26.31s0,12.71,0,12.71h-26.31c-22.63,0-41.05-18.41-41.05-41.05v-26.31s12.71,0,12.71,0v26.31Z"/>
            <path class="cls-1" d="M665.68,227.98h-26.31s0-12.71,0-12.71h26.31c5.52,0,10.65-1.61,15.01-4.35l-31.4-31.4c-1.24-1.24-1.86-2.87-1.86-4.49s.62-3.25,1.86-4.49c2.48-2.48,6.5-2.48,8.98,0l31.4,31.4c2.74-4.36,4.35-9.49,4.35-15.01v-26.31s12.71,0,12.71,0v26.31c0,22.63-18.41,41.05-41.05,41.05Z"/>
            <path class="cls-1" d="M706.73,274.12v26.31s-12.71,0-12.71,0v-26.31c0-5.52-1.61-10.65-4.35-15.01l-31.4,31.4c-2.48,2.48-6.5,2.48-8.98,0-1.24-1.24-1.86-2.87-1.86-4.49s.62-3.25,1.86-4.49l31.4-31.4c-4.36-2.74-9.49-4.35-15.01-4.35h-26.31s0-12.71,0-12.71h26.31c22.63,0,41.05,18.41,41.05,41.05Z"/>
          </g>
        </g>
        <g class="cls-2">
          <g>
            <path class="cls-1" d="M752.39,406.03c-5.52,0-10.65,1.61-15.01,4.35l31.4,31.4c2.48,2.48,2.48,6.5,0,8.98-2.48,2.48-6.5,2.48-8.98,0l-31.4-31.4c-2.74,4.36-4.35,9.49-4.35,15.01v26.31s-12.71,0-12.71,0v-26.31c0-22.63,18.41-41.05,41.05-41.05h26.31s0,12.71,0,12.71h-26.31Z"/>
            <path class="cls-1" d="M724.05,347.19c0,5.52,1.61,10.65,4.35,15.01l31.4-31.4c2.48-2.48,6.5-2.48,8.98,0,2.48,2.48,2.48,6.5,0,8.98l-31.4,31.4c4.36,2.74,9.49,4.35,15.01,4.35h26.31s0,12.71,0,12.71h-26.31c-22.63,0-41.05-18.41-41.05-41.05v-26.31s12.71,0,12.71,0v26.31Z"/>
            <path class="cls-1" d="M665.68,388.23h-26.31s0-12.71,0-12.71h26.31c5.52,0,10.65-1.61,15.01-4.35l-31.4-31.4c-1.24-1.24-1.86-2.87-1.86-4.49s.62-3.25,1.86-4.49c2.48-2.48,6.5-2.48,8.98,0l31.4,31.4c2.74-4.36,4.35-9.49,4.35-15.01v-26.31s12.71,0,12.71,0v26.31c0,22.63-18.41,41.05-41.05,41.05Z"/>
            <path class="cls-1" d="M706.73,434.37v26.31s-12.71,0-12.71,0v-26.31c0-5.52-1.61-10.65-4.35-15.01l-31.4,31.4c-2.48,2.48-6.5,2.48-8.98,0-1.24-1.24-1.86-2.87-1.86-4.49s.62-3.25,1.86-4.49l31.4-31.4c-4.36-2.74-9.49-4.35-15.01-4.35h-26.31s0-12.71,0-12.71h26.31c22.63,0,41.05,18.41,41.05,41.05Z"/>
          </g>
        </g>
        <g class="cls-2">
          <g>
            <path class="cls-1" d="M752.39,566.28c-5.52,0-10.65,1.61-15.01,4.35l31.4,31.4c2.48,2.48,2.48,6.5,0,8.98-2.48,2.48-6.5,2.48-8.98,0l-31.4-31.4c-2.74,4.36-4.35,9.49-4.35,15.01v26.31s-12.71,0-12.71,0v-26.31c0-22.63,18.41-41.05,41.05-41.05h26.31s0,12.71,0,12.71h-26.31Z"/>
            <path class="cls-1" d="M724.05,507.44c0,5.52,1.61,10.65,4.35,15.01l31.4-31.4c2.48-2.48,6.5-2.48,8.98,0,2.48,2.48,2.48,6.5,0,8.98l-31.4,31.4c4.36,2.74,9.49,4.35,15.01,4.35h26.31s0,12.71,0,12.71h-26.31c-22.63,0-41.05-18.41-41.05-41.05v-26.31s12.71,0,12.71,0v26.31Z"/>
            <path class="cls-1" d="M665.68,548.48h-26.31s0-12.71,0-12.71h26.31c5.52,0,10.65-1.61,15.01-4.35l-31.4-31.4c-1.24-1.24-1.86-2.87-1.86-4.49s.62-3.25,1.86-4.49c2.48-2.48,6.5-2.48,8.98,0l31.4,31.4c2.74-4.36,4.35-9.49,4.35-15.01v-26.31s12.71,0,12.71,0v26.31c0,22.63-18.41,41.05-41.05,41.05Z"/>
            <path class="cls-1" d="M706.73,594.62v26.31s-12.71,0-12.71,0v-26.31c0-5.52-1.61-10.65-4.35-15.01l-31.4,31.4c-2.48,2.48-6.5,2.48-8.98,0-1.24-1.24-1.86-2.87-1.86-4.49s.62-3.25,1.86-4.49l31.4-31.4c-4.36-2.74-9.49-4.35-15.01-4.35h-26.31s0-12.71,0-12.71h26.31c22.63,0,41.05,18.41,41.05,41.05Z"/>
          </g>
        </g>
        <g class="cls-2">
          <g>
            <path class="cls-1" d="M750.82,725.44c-5.52,0-10.65,1.61-15.01,4.35l31.4,31.4c2.48,2.48,2.48,6.5,0,8.98-2.48,2.48-6.5,2.48-8.98,0l-31.4-31.4c-2.74,4.36-4.35,9.49-4.35,15.01v26.31s-12.71,0-12.71,0v-26.31c0-22.63,18.41-41.05,41.05-41.05h26.31s0,12.71,0,12.71h-26.31Z"/>
            <path class="cls-1" d="M722.48,666.6c0,5.52,1.61,10.65,4.35,15.01l31.4-31.4c2.48-2.48,6.5-2.48,8.98,0,2.48,2.48,2.48,6.5,0,8.98l-31.4,31.4c4.36,2.74,9.49,4.35,15.01,4.35h26.31s0,12.71,0,12.71h-26.31c-22.63,0-41.05-18.41-41.05-41.05v-26.31s12.71,0,12.71,0v26.31Z"/>
            <path class="cls-1" d="M664.11,707.64h-26.31s0-12.71,0-12.71h26.31c5.52,0,10.65-1.61,15.01-4.35l-31.4-31.4c-1.24-1.24-1.86-2.87-1.86-4.49s.62-3.25,1.86-4.49c2.48-2.48,6.5-2.48,8.98,0l31.4,31.4c2.74-4.36,4.35-9.49,4.35-15.01v-26.31s12.71,0,12.71,0v26.31c0,22.63-18.41,41.05-41.05,41.05Z"/>
            <path class="cls-1" d="M705.16,753.78v26.31s-12.71,0-12.71,0v-26.31c0-5.52-1.61-10.65-4.35-15.01l-31.4,31.4c-2.48,2.48-6.5,2.48-8.98,0-1.24-1.24-1.86-2.87-1.86-4.49s.62-3.25,1.86-4.49l31.4-31.4c-4.36-2.74-9.49-4.35-15.01-4.35h-26.31s0-12.71,0-12.71h26.31c22.63,0,41.05,18.41,41.05,41.05Z"/>
          </g>
        </g>
      </g>
    </g>
  </g>
</svg>