<?xml version="1.0" encoding="UTF-8"?>
<svg id="Layer_2" data-name="Layer 2" xmlns="http://www.w3.org/2000/svg" viewBox="0 0 319.27 244.71">
  <defs>
    <style>
      .cls-1 {
        fill: #cffc5e;
      }

      .cls-2 {
        fill: #f2f2ee;
      }

      .cls-3 {
        fill: #c7f1d5;
      }
    </style>
  </defs>
  <g id="Layer_1-2" data-name="Layer 1">
    <g id="uuid-961afa3a-bc37-41a4-9566-22e2c8b21772" data-name="Layer 1-2">
      <path class="cls-3" d="M299.9,24.83c3.6,3.47,5.95,7.74,7.07,12.27l-40.24.78c-3.18.06-5.71,2.69-5.65,5.87.06,3.18,2.69,5.71,5.87,5.65l40.24-.78c-.95,4.57-3.13,8.93-6.59,12.53l-16.53,17.18,8.3,7.98,16.53-17.18c14.22-14.78,13.76-38.38-1.02-52.6L290.7,0l-7.98,8.3,17.18,16.53Z"/>
      <path class="cls-1" d="M7.7,241.94c55.8-6.51,111.93-10.73,168.13-11.28,25.54-.04,51.45.64,76.95,3.52,2.9.33,4.98,2.94,4.65,5.84-.33,2.98-3.11,5.1-6.07,4.62-29.77-4.33-60.67-5.87-90.86-6.28-30.52-.44-61.07.39-91.56,1.85-20.35,1.01-40.71,2.28-61,4.03-.64.06-1.2-.42-1.25-1.05-.05-.62.4-1.17,1.01-1.25h0Z"/>
      <g>
        <path class="cls-2" d="M3.44,29.04c1.63-2.74,3.85-4.9,6.65-6.48,2.81-1.58,5.92-2.37,9.34-2.37,2.62,0,5.04.47,7.25,1.42s4.09,2.19,5.63,3.71c1.54,1.53,2.73,3.19,3.56,4.98l-7.88,2.99c-.76-1.56-1.9-2.84-3.41-3.84-1.51-1-3.23-1.5-5.16-1.5-1.79,0-3.43.45-4.91,1.35s-2.64,2.12-3.49,3.66c-.85,1.54-1.27,3.26-1.27,5.16s.42,3.61,1.27,5.16c.85,1.54,2.01,2.77,3.49,3.66s3.12,1.35,4.91,1.35c1.93,0,3.65-.5,5.16-1.5,1.51-1,2.65-2.28,3.41-3.84l7.88,2.99c-.83,1.79-2.02,3.46-3.56,4.98-1.55,1.53-3.42,2.77-5.63,3.71-2.21.95-4.63,1.42-7.25,1.42-3.42,0-6.54-.79-9.34-2.37-2.81-1.58-5.03-3.74-6.65-6.48-1.63-2.74-2.44-5.77-2.44-9.1s.81-6.35,2.44-9.1v.04Z"/>
        <path class="cls-2" d="M39.72,35.8c1.23-2.06,2.91-3.68,5.03-4.86,2.13-1.18,4.49-1.77,7.08-1.77s4.95.59,7.08,1.77c2.13,1.18,3.8,2.8,5.03,4.86,1.23,2.06,1.84,4.34,1.84,6.83s-.62,4.77-1.84,6.83c-1.23,2.06-2.91,3.68-5.03,4.86-2.13,1.18-4.49,1.77-7.08,1.77s-4.95-.59-7.08-1.77c-2.13-1.18-3.8-2.8-5.03-4.86-1.23-2.06-1.84-4.34-1.84-6.83s.61-4.77,1.84-6.83ZM46.9,45.79c.5.95,1.18,1.69,2.04,2.22.86.53,1.83.8,2.89.8s2.03-.27,2.89-.8c.86-.53,1.54-1.27,2.04-2.22s.75-2,.75-3.17-.25-2.22-.75-3.17c-.5-.95-1.18-1.69-2.04-2.22-.86-.53-1.83-.8-2.89-.8s-2.03.27-2.89.8c-.87.53-1.55,1.27-2.04,2.22s-.75,2-.75,3.17.25,2.22.75,3.17Z"/>
        <path class="cls-2" d="M69.78,29.67h7.97v9.22h-.6c.37-2.92,1.4-5.27,3.09-7.05,1.69-1.78,3.77-2.67,6.23-2.67,1.86,0,3.49.45,4.88,1.35,1.4.9,2.47,2.14,3.21,3.74.75,1.6,1.12,3.41,1.12,5.43v15.9h-7.97v-14.4c0-.93-.2-1.76-.6-2.49-.4-.73-.96-1.3-1.69-1.69-.73-.4-1.54-.6-2.44-.6-1.03,0-1.94.2-2.74.6s-1.41.96-1.84,1.69c-.43.73-.65,1.56-.65,2.49v14.4h-7.97v-25.92Z"/>
        <path class="cls-2" d="M100.43,29.67h7.97v9.22h-.6c.37-2.92,1.4-5.27,3.09-7.05,1.69-1.78,3.77-2.67,6.23-2.67,1.86,0,3.49.45,4.88,1.35,1.4.9,2.47,2.14,3.21,3.74.75,1.6,1.12,3.41,1.12,5.43v15.9h-7.97v-14.4c0-.93-.2-1.76-.6-2.49-.4-.73-.96-1.3-1.69-1.69-.73-.4-1.54-.6-2.44-.6-1.03,0-1.94.2-2.74.6s-1.41.96-1.84,1.69c-.43.73-.65,1.56-.65,2.49v14.4h-7.97v-25.92Z"/>
        <path class="cls-2" d="M137.36,39.53h14.16l-1.84,2.54c-.07-1.2-.35-2.26-.85-3.19s-1.18-1.65-2.04-2.17c-.86-.51-1.86-.77-2.99-.77s-2.1.29-3.02.87c-.91.58-1.63,1.39-2.14,2.42-.52,1.03-.77,2.16-.77,3.39s.27,2.4.8,3.41,1.29,1.81,2.27,2.39c.98.58,2.1.87,3.36.87,1.16,0,2.22-.25,3.17-.75s1.7-1.21,2.27-2.14l6.48,2.99c-1.23,2.03-2.89,3.65-4.98,4.86s-4.49,1.82-7.18,1.82-4.95-.59-7.08-1.77-3.8-2.8-5.03-4.86-1.84-4.34-1.84-6.83.6-4.77,1.79-6.83c1.2-2.06,2.84-3.68,4.93-4.86,2.09-1.18,4.42-1.77,6.98-1.77,2.92,0,5.51.75,7.78,2.24,2.26,1.5,3.9,3.5,4.93,6.01,1.03,2.51,1.26,5.21.7,8.1h-19.84v-5.98h-.02Z"/>
        <path class="cls-2" d="M162.33,35.8c1.23-2.06,2.91-3.68,5.03-4.86,2.13-1.18,4.49-1.77,7.08-1.77,2.76,0,5.25.72,7.48,2.17,2.23,1.45,3.89,3.5,4.98,6.16l-7.28,2.49c-.5-1.13-1.21-2-2.12-2.62-.92-.61-1.94-.92-3.07-.92-1.06,0-2.03.27-2.89.8-.87.53-1.55,1.27-2.04,2.22s-.75,2-.75,3.17.25,2.22.75,3.17c.5.95,1.18,1.69,2.04,2.22.86.53,1.83.8,2.89.8,1.13,0,2.15-.31,3.07-.92.91-.61,1.62-1.49,2.12-2.62l7.28,2.49c-1.1,2.66-2.76,4.71-4.98,6.16-2.23,1.45-4.72,2.17-7.48,2.17-2.59,0-4.95-.59-7.08-1.77s-3.8-2.8-5.03-4.86-1.84-4.34-1.84-6.83.61-4.77,1.84-6.83v-.02Z"/>
        <path class="cls-2" d="M187.4,29.67h4.98v-6.98l7.97-2.49v9.47h6.23v6.98h-6.23v8.97c0,1,.25,1.74.75,2.24s1.25.75,2.24.75h3.24v6.98h-3.24c-3.72,0-6.48-.86-8.27-2.59-1.79-1.73-2.69-4.35-2.69-7.88v-8.47h-4.98v-6.98Z"/>
        <path class="cls-2" d="M211.23,19.35c.93-.93,2.04-1.4,3.34-1.4s2.41.47,3.34,1.4,1.4,2.04,1.4,3.34-.47,2.37-1.4,3.31c-.93.95-2.04,1.42-3.34,1.42s-2.41-.47-3.34-1.42-1.4-2.05-1.4-3.31.46-2.41,1.4-3.34ZM210.58,29.67h7.97v25.92h-7.97v-25.92Z"/>
        <path class="cls-2" d="M223.54,29.67h7.97v9.22h-.6c.37-2.92,1.4-5.27,3.09-7.05,1.69-1.78,3.77-2.67,6.23-2.67,1.86,0,3.49.45,4.88,1.35,1.4.9,2.47,2.14,3.21,3.74.75,1.6,1.12,3.41,1.12,5.43v15.9h-7.97v-14.4c0-.93-.2-1.76-.6-2.49-.4-.73-.96-1.3-1.69-1.69-.73-.4-1.54-.6-2.44-.6-1.03,0-1.94.2-2.74.6-.8.4-1.41.96-1.84,1.69s-.65,1.56-.65,2.49v14.4h-7.97v-25.92h0Z"/>
        <path class="cls-2" d="M254.59,35.52c.93-1.98,2.21-3.53,3.84-4.66s3.46-1.69,5.48-1.69,3.63.57,5.11,1.69c1.48,1.13,2.62,2.68,3.41,4.66.8,1.98,1.2,4.18,1.2,6.6s-.4,4.63-1.2,6.6c-.8,1.98-1.94,3.53-3.41,4.66-1.48,1.13-3.18,1.69-5.11,1.69-2.03,0-3.85-.56-5.48-1.69-1.63-1.13-2.91-2.68-3.84-4.66-.93-1.98-1.4-4.18-1.4-6.6s.46-4.63,1.4-6.6ZM263.98,57.95c.81.58,1.77.87,2.87.87s2.05-.27,2.96-.8,1.65-1.27,2.19-2.22c.55-.95.82-2.02.82-3.21v-22.93h7.97v22.93c0,2.49-.62,4.77-1.84,6.83-1.23,2.06-2.91,3.68-5.03,4.86-2.13,1.18-4.49,1.77-7.08,1.77s-4.98-.62-7.08-1.84c-2.09-1.23-3.72-2.86-4.88-4.88l7.08-3.84c.53,1.06,1.2,1.88,2.02,2.47h0ZM262.21,45.02c.5.86,1.18,1.54,2.04,2.04.86.5,1.83.75,2.89.75s2.03-.25,2.89-.75c.86-.5,1.54-1.18,2.04-2.04s.75-1.83.75-2.89-.25-2.03-.75-2.89-1.18-1.54-2.04-2.04c-.86-.5-1.83-.75-2.89-.75s-2.03.25-2.89.75c-.87.5-1.55,1.18-2.04,2.04-.5.86-.75,1.83-.75,2.89s.25,2.03.75,2.89Z"/>
        <path class="cls-2" d="M3.44,88.85c1.63-2.74,3.85-4.9,6.65-6.48,2.81-1.58,5.92-2.37,9.34-2.37,2.62,0,5.04.47,7.25,1.42s4.09,2.19,5.63,3.71c1.54,1.53,2.73,3.19,3.56,4.98l-7.88,2.99c-.76-1.56-1.9-2.84-3.41-3.84-1.51-1-3.23-1.5-5.16-1.5-1.79,0-3.43.45-4.91,1.35-1.48.9-2.64,2.12-3.49,3.66-.85,1.55-1.27,3.26-1.27,5.16s.42,3.61,1.27,5.16,2.01,2.77,3.49,3.66c1.48.9,3.12,1.35,4.91,1.35,1.93,0,3.65-.5,5.16-1.5,1.51-1,2.65-2.28,3.41-3.84l7.88,2.99c-.83,1.79-2.02,3.46-3.56,4.98-1.55,1.53-3.42,2.77-5.63,3.71-2.21.94-4.63,1.42-7.25,1.42-3.42,0-6.54-.79-9.34-2.37-2.81-1.58-5.03-3.74-6.65-6.48-1.63-2.74-2.44-5.77-2.44-9.1s.81-6.35,2.44-9.1v.04Z"/>
        <path class="cls-2" d="M41.37,102.11c1.99-1.31,4.45-2.1,7.38-2.37l3.54-.3c.73-.07,1.26-.23,1.6-.5.33-.27.5-.67.5-1.2,0-.66-.32-1.21-.97-1.64s-1.47-.65-2.47-.65c-1.13,0-2.03.3-2.69.9-.67.6-1.06,1.38-1.2,2.34l-7.92-1.7c.17-1.43.74-2.76,1.72-3.99.98-1.23,2.33-2.21,4.04-2.94s3.7-1.1,5.96-1.1c3.46,0,6.24.89,8.35,2.67s3.17,4.39,3.17,7.85v15.9h-7.97v-8.97h.6c-.43,3.16-1.39,5.53-2.87,7.1-1.48,1.58-3.55,2.37-6.21,2.37-1.3,0-2.53-.31-3.69-.92s-2.09-1.5-2.79-2.67c-.7-1.16-1.05-2.49-1.05-3.99,0-2.82,1-4.89,2.99-6.21l-.02.02ZM47.02,109.11c.45.37,1.09.55,1.92.55.9,0,1.77-.23,2.62-.7.85-.46,1.53-1.07,2.04-1.82.51-.75.77-1.52.77-2.32v-.85l.5.15c-.13.3-.37.52-.7.65-.33.13-.88.23-1.64.3l-3.84.45c-.76.1-1.35.34-1.75.72-.4.38-.6.84-.6,1.37,0,.63.22,1.13.67,1.5h.01Z"/>
        <path class="cls-2" d="M67.08,78.51h7.97v36.88h-7.97v-36.88Z"/>
        <path class="cls-2" d="M80.69,79.16c.93-.93,2.04-1.4,3.34-1.4s2.41.46,3.34,1.4c.93.93,1.4,2.04,1.4,3.34s-.47,2.37-1.4,3.31c-.93.95-2.04,1.42-3.34,1.42s-2.41-.47-3.34-1.42-1.4-2.05-1.4-3.31.46-2.41,1.4-3.34ZM80.04,89.48h7.97v25.92h-7.97v-25.92Z"/>
        <path class="cls-2" d="M95.99,96.45h-4.98v-6.98h4.98v-.5c0-2.33.4-4.26,1.2-5.81.8-1.55,2-2.71,3.61-3.49s3.66-1.17,6.16-1.17h3.24v6.98h-3.24c-.67,0-1.22.11-1.67.32-.45.22-.78.55-1,1s-.32,1-.32,1.67v1h6.23v6.98h-6.23v18.94h-7.97v-18.94h0Z"/>
        <path class="cls-2" d="M113.54,95.61c1.23-2.06,2.91-3.68,5.03-4.86,2.13-1.18,4.49-1.77,7.08-1.77s4.95.59,7.08,1.77c2.13,1.18,3.8,2.8,5.03,4.86,1.23,2.06,1.84,4.34,1.84,6.83s-.62,4.77-1.84,6.83c-1.23,2.06-2.91,3.68-5.03,4.86-2.13,1.18-4.49,1.77-7.08,1.77s-4.95-.59-7.08-1.77-3.8-2.8-5.03-4.86c-1.23-2.06-1.84-4.34-1.84-6.83s.61-4.77,1.84-6.83ZM120.71,105.6c.5.95,1.18,1.69,2.04,2.22s1.83.8,2.89.8,2.03-.27,2.89-.8c.86-.53,1.54-1.27,2.04-2.22.5-.95.75-2,.75-3.17s-.25-2.22-.75-3.17-1.18-1.69-2.04-2.22-1.83-.8-2.89-.8-2.03.27-2.89.8c-.87.53-1.55,1.27-2.04,2.22-.5.95-.75,2-.75,3.17s.25,2.22.75,3.17Z"/>
        <path class="cls-2" d="M143.59,89.48h7.97v10.77h-.7c.3-3.32.96-5.88,1.99-7.68,1.03-1.79,2.25-2.9,3.66-3.31,1.41-.42,2.87-.34,4.36.22v7.48c-1.73-.7-3.31-.97-4.74-.82s-2.55.66-3.36,1.52-1.22,1.98-1.22,3.34v14.4h-7.97v-25.92h0Z"/>
        <path class="cls-2" d="M164.38,89.48h7.97v9.22h-.6c.37-2.92,1.4-5.28,3.09-7.05s3.77-2.67,6.23-2.67c1.86,0,3.49.45,4.88,1.35s2.47,2.14,3.21,3.74c.75,1.59,1.12,3.41,1.12,5.43v15.9h-7.97v-14.4c0-.93-.2-1.76-.6-2.49-.4-.73-.96-1.3-1.69-1.69-.73-.4-1.54-.6-2.44-.6-1.03,0-1.94.2-2.74.6s-1.41.96-1.84,1.69-.65,1.56-.65,2.49v14.4h-7.97v-25.92h0Z"/>
        <path class="cls-2" d="M195.67,79.16c.93-.93,2.04-1.4,3.34-1.4s2.41.46,3.34,1.4c.93.93,1.4,2.04,1.4,3.34s-.47,2.37-1.4,3.31c-.93.95-2.04,1.42-3.34,1.42s-2.41-.47-3.34-1.42-1.4-2.05-1.4-3.31.46-2.41,1.4-3.34ZM195.03,89.48h7.97v25.92h-7.97v-25.92Z"/>
        <path class="cls-2" d="M209.48,102.11c1.99-1.31,4.45-2.1,7.38-2.37l3.54-.3c.73-.07,1.26-.23,1.6-.5.33-.27.5-.67.5-1.2,0-.66-.32-1.21-.97-1.64s-1.47-.65-2.47-.65c-1.13,0-2.03.3-2.69.9-.67.6-1.06,1.38-1.2,2.34l-7.92-1.7c.17-1.43.74-2.76,1.72-3.99.98-1.23,2.33-2.21,4.04-2.94,1.71-.73,3.7-1.1,5.96-1.1,3.46,0,6.24.89,8.35,2.67,2.11,1.78,3.17,4.39,3.17,7.85v15.9h-7.97v-8.97h.6c-.43,3.16-1.39,5.53-2.87,7.1-1.48,1.58-3.55,2.37-6.21,2.37-1.3,0-2.53-.31-3.69-.92s-2.09-1.5-2.79-2.67c-.7-1.16-1.05-2.49-1.05-3.99,0-2.82,1-4.89,2.99-6.21l-.02.02ZM215.14,109.11c.45.37,1.09.55,1.92.55.9,0,1.77-.23,2.62-.7.85-.46,1.53-1.07,2.04-1.82s.77-1.52.77-2.32v-.85l.5.15c-.13.3-.37.52-.7.65-.33.13-.88.23-1.64.3l-3.84.45c-.76.1-1.35.34-1.75.72-.4.38-.6.84-.6,1.37,0,.63.22,1.13.67,1.5h.01Z"/>
        <path class="cls-2" d="M1.99,140.31h22.93v7.48h-14.45v7.23h13.96v7.48h-13.96v12.71H1.99v-34.89h0Z"/>
        <path class="cls-2" d="M29.26,155.42c1.23-2.06,2.91-3.68,5.03-4.86,2.13-1.18,4.49-1.77,7.08-1.77s4.95.59,7.08,1.77c2.13,1.18,3.8,2.8,5.03,4.86,1.23,2.06,1.84,4.34,1.84,6.83s-.62,4.77-1.84,6.83c-1.23,2.06-2.91,3.68-5.03,4.86-2.13,1.18-4.49,1.77-7.08,1.77s-4.95-.59-7.08-1.77c-2.13-1.18-3.8-2.8-5.03-4.86-1.23-2.06-1.84-4.34-1.84-6.83s.61-4.77,1.84-6.83ZM36.43,165.41c.5.95,1.18,1.69,2.04,2.22s1.83.8,2.89.8,2.03-.27,2.89-.8,1.54-1.27,2.04-2.22.75-2,.75-3.17-.25-2.22-.75-3.17-1.18-1.69-2.04-2.22-1.83-.8-2.89-.8-2.03.27-2.89.8c-.87.53-1.55,1.27-2.04,2.22-.5.95-.75,2-.75,3.17s.25,2.22.75,3.17Z"/>
        <path class="cls-2" d="M60.16,155.42c1.23-2.06,2.91-3.68,5.03-4.86,2.13-1.18,4.49-1.77,7.08-1.77s4.95.59,7.08,1.77c2.13,1.18,3.8,2.8,5.03,4.86,1.23,2.06,1.84,4.34,1.84,6.83s-.62,4.77-1.84,6.83c-1.23,2.06-2.91,3.68-5.03,4.86-2.13,1.18-4.49,1.77-7.08,1.77s-4.95-.59-7.08-1.77-3.8-2.8-5.03-4.86-1.84-4.34-1.84-6.83.61-4.77,1.84-6.83ZM67.33,165.41c.5.95,1.18,1.69,2.04,2.22s1.83.8,2.89.8,2.03-.27,2.89-.8,1.54-1.27,2.04-2.22.75-2,.75-3.17-.25-2.22-.75-3.17-1.18-1.69-2.04-2.22-1.83-.8-2.89-.8-2.03.27-2.89.8c-.87.53-1.55,1.27-2.04,2.22-.5.95-.75,2-.75,3.17s.25,2.22.75,3.17Z"/>
        <path class="cls-2" d="M90.61,155.39c.93-2.04,2.21-3.66,3.84-4.83,1.63-1.18,3.46-1.77,5.48-1.77s3.63.59,5.11,1.77c1.48,1.18,2.62,2.79,3.41,4.83.8,2.04,1.2,4.33,1.2,6.85s-.4,4.81-1.2,6.85c-.8,2.04-1.94,3.66-3.41,4.83-1.48,1.18-3.18,1.77-5.11,1.77-2.03,0-3.85-.59-5.48-1.77-1.63-1.18-2.91-2.79-3.84-4.83-.93-2.04-1.4-4.33-1.4-6.85s.46-4.81,1.4-6.85ZM98.21,165.41c.48.95,1.14,1.69,1.97,2.22s1.74.8,2.74.8c1.13,0,2.15-.27,3.06-.8.91-.53,1.62-1.27,2.12-2.22s.75-2,.75-3.17-.25-2.22-.75-3.17-1.21-1.69-2.12-2.22-1.94-.8-3.06-.8c-1,0-1.91.27-2.74.8-.83.53-1.49,1.27-1.97,2.22s-.72,2-.72,3.17.24,2.22.72,3.17ZM108.85,138.32h7.97v36.88h-7.97v-36.88Z"/>
        <path class="cls-2" d="M139.75,156.26h-4.98v-6.98h4.98v-.5c0-2.33.4-4.26,1.2-5.81.8-1.55,2-2.71,3.61-3.49,1.61-.78,3.66-1.17,6.16-1.17h3.24v6.98h-3.24c-.67,0-1.22.11-1.67.32-.45.22-.78.55-1,1s-.32,1-.32,1.67v1h6.23v6.98h-6.23v18.94h-7.97v-18.94h0Z"/>
        <path class="cls-2" d="M157.3,155.42c1.23-2.06,2.91-3.68,5.03-4.86,2.13-1.18,4.49-1.77,7.08-1.77s4.95.59,7.08,1.77c2.13,1.18,3.8,2.8,5.03,4.86,1.23,2.06,1.84,4.34,1.84,6.83s-.62,4.77-1.84,6.83c-1.23,2.06-2.91,3.68-5.03,4.86-2.13,1.18-4.49,1.77-7.08,1.77s-4.95-.59-7.08-1.77c-2.13-1.18-3.8-2.8-5.03-4.86-1.23-2.06-1.84-4.34-1.84-6.83s.61-4.77,1.84-6.83ZM164.47,165.41c.5.95,1.18,1.69,2.04,2.22s1.83.8,2.89.8,2.03-.27,2.89-.8,1.54-1.27,2.04-2.22.75-2,.75-3.17-.25-2.22-.75-3.17-1.18-1.69-2.04-2.22-1.83-.8-2.89-.8-2.03.27-2.89.8c-.87.53-1.55,1.27-2.04,2.22-.5.95-.75,2-.75,3.17s.25,2.22.75,3.17Z"/>
        <path class="cls-2" d="M187.35,149.29h7.97v10.77h-.7c.3-3.32.96-5.88,1.99-7.68,1.03-1.79,2.25-2.9,3.66-3.31,1.41-.42,2.87-.34,4.36.22v7.48c-1.73-.7-3.31-.97-4.74-.82-1.43.15-2.55.66-3.36,1.52s-1.22,1.98-1.22,3.34v14.4h-7.97v-25.92h0Z"/>
        <path class="cls-2" d="M0,209.1h4.98v-6.98l7.97-2.49v9.47h6.23v6.98h-6.23v8.97c0,1,.25,1.74.75,2.24s1.25.75,2.24.75h3.24v6.98h-3.24c-3.72,0-6.48-.86-8.27-2.59-1.79-1.73-2.69-4.35-2.69-7.88v-8.47H0v-6.98Z"/>
        <path class="cls-2" d="M23.17,198.13h7.97v20.19h-.6c.37-2.92,1.4-5.27,3.09-7.05,1.69-1.78,3.77-2.67,6.23-2.67,1.86,0,3.49.45,4.88,1.35,1.4.9,2.47,2.14,3.21,3.74.75,1.6,1.12,3.41,1.12,5.43v15.9h-7.97v-14.4c0-.93-.2-1.76-.6-2.49-.4-.73-.96-1.3-1.69-1.69-.73-.4-1.54-.6-2.44-.6-1.03,0-1.94.2-2.74.6-.8.4-1.41.96-1.84,1.69s-.65,1.56-.65,2.49v14.4h-7.97v-36.88h0Z"/>
        <path class="cls-2" d="M60.11,218.96h14.16l-1.84,2.54c-.07-1.2-.35-2.26-.85-3.19-.5-.93-1.18-1.65-2.04-2.17-.86-.51-1.86-.77-2.99-.77s-2.1.29-3.02.87c-.91.58-1.63,1.39-2.14,2.42-.52,1.03-.77,2.16-.77,3.39s.27,2.4.8,3.41c.53,1.01,1.29,1.81,2.27,2.39.98.58,2.1.87,3.36.87,1.16,0,2.22-.25,3.17-.75s1.7-1.21,2.27-2.14l6.48,2.99c-1.23,2.03-2.89,3.65-4.98,4.86-2.09,1.21-4.49,1.82-7.18,1.82s-4.95-.59-7.08-1.77c-2.13-1.18-3.8-2.8-5.03-4.86-1.23-2.06-1.84-4.34-1.84-6.83s.6-4.77,1.79-6.83c1.2-2.06,2.84-3.68,4.93-4.86,2.09-1.18,4.42-1.77,6.98-1.77,2.92,0,5.51.75,7.78,2.24,2.26,1.5,3.9,3.5,4.93,6.01,1.03,2.51,1.26,5.21.7,8.1h-19.84v-5.98h-.02Z"/>
        <path class="cls-2" d="M99.18,200.12h22.93v7.48h-14.45v7.23h13.96v7.48h-13.96v12.71h-8.47v-34.89h-.01Z"/>
        <path class="cls-2" d="M133.32,209.1v14.85c0,.86.18,1.62.55,2.27.37.65.89,1.15,1.57,1.5.68.35,1.47.52,2.37.52s1.64-.17,2.32-.52c.68-.35,1.21-.85,1.6-1.5.38-.65.57-1.4.57-2.27v-14.85h7.97v14.85c0,2.26-.53,4.26-1.59,6.01s-2.54,3.11-4.44,4.09c-1.89.98-4.04,1.47-6.43,1.47s-4.58-.48-6.45-1.45c-1.88-.96-3.35-2.33-4.41-4.09s-1.59-3.77-1.59-6.03v-14.85h7.97-.01Z"/>
        <path class="cls-2" d="M153.01,209.1h4.98v-6.98l7.97-2.49v9.47h6.23v6.98h-6.23v8.97c0,1,.25,1.74.75,2.24s1.25.75,2.24.75h3.24v6.98h-3.24c-3.72,0-6.48-.86-8.27-2.59-1.79-1.73-2.69-4.35-2.69-7.88v-8.47h-4.98v-6.98Z"/>
        <path class="cls-2" d="M183.41,209.1v14.85c0,.86.18,1.62.55,2.27.37.65.89,1.15,1.57,1.5.68.35,1.47.52,2.37.52s1.64-.17,2.32-.52c.68-.35,1.21-.85,1.6-1.5.38-.65.57-1.4.57-2.27v-14.85h7.97v14.85c0,2.26-.53,4.26-1.59,6.01s-2.54,3.11-4.44,4.09c-1.89.98-4.04,1.47-6.43,1.47s-4.58-.48-6.45-1.45c-1.88-.96-3.35-2.33-4.41-4.09s-1.59-3.77-1.59-6.03v-14.85h7.97-.01Z"/>
        <path class="cls-2" d="M205.09,209.1h7.97v10.77h-.7c.3-3.32.96-5.88,1.99-7.68,1.03-1.79,2.25-2.9,3.66-3.31,1.41-.42,2.87-.34,4.36.22v7.48c-1.73-.7-3.31-.97-4.74-.82-1.43.15-2.55.66-3.36,1.52s-1.22,1.98-1.22,3.34v14.4h-7.97v-25.92h0Z"/>
        <path class="cls-2" d="M230.42,218.96h14.16l-1.84,2.54c-.07-1.2-.35-2.26-.85-3.19-.5-.93-1.18-1.65-2.04-2.17-.86-.51-1.86-.77-2.99-.77s-2.1.29-3.02.87c-.91.58-1.63,1.39-2.14,2.42-.52,1.03-.77,2.16-.77,3.39s.27,2.4.8,3.41c.53,1.01,1.29,1.81,2.27,2.39.98.58,2.1.87,3.36.87,1.16,0,2.22-.25,3.17-.75s1.7-1.21,2.27-2.14l6.48,2.99c-1.23,2.03-2.89,3.65-4.98,4.86s-4.49,1.82-7.18,1.82-4.95-.59-7.08-1.77c-2.13-1.18-3.8-2.8-5.03-4.86-1.23-2.06-1.84-4.34-1.84-6.83s.6-4.77,1.79-6.83c1.2-2.06,2.84-3.68,4.93-4.86,2.09-1.18,4.42-1.77,6.98-1.77,2.92,0,5.51.75,7.78,2.24,2.26,1.5,3.9,3.5,4.93,6.01,1.03,2.51,1.26,5.21.7,8.1h-19.84v-5.98h-.02Z"/>
        <path class="cls-2" d="M254.09,226.57c1.03-1.01,2.26-1.52,3.69-1.52s2.66.52,3.69,1.54c1.03,1.03,1.54,2.26,1.54,3.69s-.52,2.62-1.54,3.66c-1.03,1.05-2.26,1.57-3.69,1.57s-2.66-.52-3.69-1.57-1.55-2.27-1.55-3.66.51-2.7,1.55-3.71h0Z"/>
      </g>
    </g>
  </g>
</svg>