<?xml version="1.0" encoding="UTF-8"?>
<svg id="Layer_2" data-name="Layer 2" xmlns="http://www.w3.org/2000/svg" viewBox="0 0 1006.62 293.84">
  <defs>
    <style>
      .cls-1 {
        fill: #f2f2ee;
      }

      .cls-2 {
        fill: #b2ff00;
      }
    </style>
  </defs>
  <g id="Layer_1-2" data-name="Layer 1">
    <g>
      <g>
        <path class="cls-1" d="M421.63,113.45h-15.39l-20.94,66.93h16.35l3.94-13.19h29.22l3.94,13.19h17.31l-20.94-66.93h-13.48ZM409.87,152.85l10.33-34.59,10.33,34.59h-20.65Z"/>
        <path class="cls-1" d="M529.76,142.14h-40.16v14.34h21.91c-.33.92-.78,1.85-1.4,2.77-1.37,2.04-3.35,3.74-5.93,5.12-2.58,1.37-5.56,2.06-8.94,2.06s-6.58-.86-9.42-2.58c-2.84-1.72-5.07-4.06-6.69-7.03-1.62-2.96-2.44-6.26-2.44-9.9s.81-6.93,2.44-9.9c1.63-2.96,3.86-5.31,6.69-7.03,2.84-1.72,5.98-2.58,9.42-2.58,3.7,0,7,.96,9.9,2.87,2.9,1.91,5.08,4.37,6.55,7.36l15.11-5.74c-1.59-3.44-3.87-6.63-6.84-9.56-2.96-2.93-6.57-5.31-10.8-7.12-4.24-1.82-8.88-2.72-13.91-2.72-6.57,0-12.54,1.51-17.93,4.54-5.39,3.03-9.64,7.17-12.76,12.43-3.12,5.26-4.69,11.08-4.69,17.45s1.56,12.19,4.69,17.45c3.12,5.26,7.38,9.4,12.76,12.43,5.39,3.03,11.36,4.54,17.93,4.54s12.56-1.63,18.17-4.88c5.61-3.25,9.94-7.86,13-13.82,3.06-5.96,4.17-12.8,3.35-20.51Z"/>
        <polygon class="cls-1" points="572.6 180.38 572.6 127.8 592.2 127.8 592.2 113.45 536.74 113.45 536.74 127.8 556.34 127.8 556.34 180.38 572.6 180.38"/>
        <polygon class="cls-1" points="649.56 127.8 649.56 113.45 603.67 113.45 603.67 180.38 649.56 180.38 649.56 166.04 619.92 166.04 619.92 154.09 648.61 154.09 648.61 139.75 619.92 139.75 619.92 127.8 649.56 127.8"/>
        <path class="cls-1" d="M728.92,161.93l-15.11-5.74c-1.47,3-3.65,5.45-6.55,7.36-2.9,1.91-6.2,2.87-9.9,2.87-3.44,0-6.58-.86-9.42-2.58-2.84-1.72-5.07-4.06-6.69-7.03-1.62-2.96-2.44-6.26-2.44-9.9s.81-6.93,2.44-9.9c1.63-2.96,3.86-5.31,6.69-7.03,2.84-1.72,5.98-2.58,9.42-2.58,3.7,0,7,.96,9.9,2.87,2.9,1.91,5.08,4.37,6.55,7.36l15.11-5.74c-1.59-3.44-3.87-6.63-6.84-9.56-2.96-2.93-6.57-5.31-10.8-7.12-4.24-1.82-8.88-2.72-13.91-2.72-6.57,0-12.54,1.51-17.93,4.54-5.39,3.03-9.64,7.17-12.76,12.43-3.12,5.26-4.69,11.08-4.69,17.45s1.56,12.19,4.69,17.45c3.12,5.26,7.38,9.4,12.76,12.43,5.39,3.03,11.36,4.54,17.93,4.54,5.04,0,9.67-.91,13.91-2.72,4.24-1.82,7.84-4.19,10.8-7.12,2.96-2.93,5.24-6.12,6.84-9.56Z"/>
        <polygon class="cls-1" points="801.58 180.38 801.58 113.45 785.33 113.45 785.33 139.75 758.56 139.75 758.56 113.45 742.3 113.45 742.3 180.38 758.56 180.38 758.56 154.09 785.33 154.09 785.33 180.38 801.58 180.38"/>
        <rect class="cls-1" x="529.66" y="225.95" width="16.25" height="66.93"/>
        <path class="cls-1" d="M592.77,225.95h-15.39l-20.94,66.93h16.35l3.94-13.19h29.22l3.94,13.19h17.31l-20.94-66.93h-13.48ZM581.01,265.35l10.33-34.59,10.33,34.59h-20.65Z"/>
        <polygon class="cls-1" points="682.64 288.04 669.16 225.95 653.96 225.95 652.9 225.95 637.7 225.95 637.7 292.88 653.96 292.88 653.96 230.8 667.44 292.88 682.64 292.88 683.69 292.88 698.89 292.88 698.89 225.95 682.64 225.95 682.64 288.04"/>
        <path class="cls-1" d="M738.24,242.49c2.84-1.72,5.98-2.58,9.42-2.58,3.7,0,7,.96,9.9,2.87,2.9,1.91,5.08,4.37,6.55,7.36l15.11-5.74c-1.59-3.44-3.87-6.63-6.84-9.56-2.96-2.93-6.57-5.31-10.8-7.12-4.24-1.82-8.88-2.72-13.91-2.72-6.57,0-12.54,1.51-17.93,4.54-5.39,3.03-9.64,7.17-12.76,12.43-3.12,5.26-4.69,11.08-4.69,17.45s1.56,12.19,4.69,17.45c3.12,5.26,7.38,9.4,12.76,12.43,5.39,3.03,11.36,4.54,17.93,4.54,5.04,0,9.67-.91,13.91-2.72,4.24-1.82,7.84-4.19,10.8-7.12,2.96-2.93,5.24-6.12,6.84-9.56l-15.11-5.74c-1.47,3-3.65,5.45-6.55,7.36-2.9,1.91-6.2,2.87-9.9,2.87-3.44,0-6.58-.86-9.42-2.58-2.84-1.72-5.07-4.06-6.69-7.03-1.62-2.96-2.44-6.26-2.44-9.9s.81-6.93,2.44-9.9c1.63-2.96,3.86-5.31,6.69-7.03Z"/>
        <polygon class="cls-1" points="792.59 292.88 838.49 292.88 838.49 278.54 808.85 278.54 808.85 266.59 837.53 266.59 837.53 252.25 808.85 252.25 808.85 240.3 838.49 240.3 838.49 225.95 792.59 225.95 792.59 292.88"/>
        <path class="cls-1" d="M421.63,225.84h-15.39l-20.94,66.93h16.35l3.94-13.19h29.22l3.94,13.19h17.31l-20.94-66.93h-13.48ZM409.87,265.23l10.33-34.59,10.33,34.59h-20.65Z"/>
        <path class="cls-1" d="M475.82,259.42v-33.46h-16.05v35.39c0,17.42,14.12,31.53,31.53,31.53h25.94v-14.85h-22.8c-11.14,0-18.62-8.35-18.62-18.62Z"/>
        <path class="cls-1" d="M498.66,225.95h-15.37v33.18c0,6.19,5.04,11.23,11.23,11.23h22.71v-14.35h-18.57v-30.06Z"/>
        <path class="cls-1" d="M402.74,64.3c5.39,3.03,11.36,4.54,17.93,4.54,5.04,0,9.67-.91,13.91-2.72,4.24-1.82,7.84-4.19,10.8-7.12,2.96-2.93,5.24-6.12,6.84-9.56l-15.11-5.74c-1.47,3-3.65,5.45-6.55,7.36-2.9,1.91-6.2,2.87-9.9,2.87-3.44,0-6.58-.86-9.42-2.58-2.84-1.72-5.07-4.06-6.69-7.03-1.62-2.96-2.44-6.26-2.44-9.9s.81-6.93,2.44-9.9c1.63-2.96,3.86-5.31,6.69-7.03,2.84-1.72,5.98-2.58,9.42-2.58,3.7,0,7,.96,9.9,2.87,2.9,1.91,5.08,4.37,6.55,7.36l15.11-5.74c-1.59-3.44-3.87-6.63-6.84-9.56-2.96-2.93-6.57-5.31-10.8-7.12-4.24-1.82-8.88-2.72-13.91-2.72-6.57,0-12.54,1.51-17.93,4.54-5.39,3.03-9.64,7.17-12.76,12.43-3.12,5.26-4.69,11.08-4.69,17.45s1.56,12.19,4.69,17.45c3.12,5.26,7.38,9.4,12.76,12.43Z"/>
        <path class="cls-1" d="M477.7,54.69h29.22l3.94,13.19h17.31L507.23.96h-28.87l-20.94,66.93h16.35l3.94-13.19ZM492.31,5.76l10.33,34.59h-20.65l10.33-34.59Z"/>
        <rect class="cls-1" x="593.59" y=".96" width="16.25" height="66.93"/>
        <polygon class="cls-1" points="641.39 43.5 668.16 43.5 668.16 29.16 641.39 29.16 641.39 15.3 669.12 15.3 669.12 .96 625.14 .96 625.14 67.88 641.39 67.88 641.39 43.5"/>
        <path class="cls-1" d="M697.08,64.3c5.39,3.03,11.36,4.54,17.93,4.54s12.54-1.51,17.93-4.54c5.39-3.03,9.64-7.17,12.76-12.43,3.12-5.26,4.68-11.07,4.68-17.45s-1.56-12.19-4.68-17.45c-3.12-5.26-7.38-9.4-12.76-12.43-5.39-3.03-11.36-4.54-17.93-4.54s-12.54,1.51-17.93,4.54c-5.39,3.03-9.64,7.17-12.76,12.43-3.12,5.26-4.69,11.08-4.69,17.45s1.56,12.19,4.69,17.45c3.12,5.26,7.38,9.4,12.76,12.43ZM698.9,24.52c1.63-2.96,3.86-5.31,6.69-7.03,2.84-1.72,5.98-2.58,9.42-2.58s6.58.86,9.42,2.58c2.84,1.72,5.07,4.06,6.69,7.03,1.63,2.96,2.44,6.26,2.44,9.9s-.81,6.93-2.44,9.9c-1.63,2.96-3.86,5.31-6.69,7.03-2.84,1.72-5.98,2.58-9.42,2.58s-6.58-.86-9.42-2.58c-2.84-1.72-5.07-4.06-6.69-7.03-1.62-2.96-2.44-6.26-2.44-9.9s.81-6.93,2.44-9.9Z"/>
        <path class="cls-1" d="M780.03,45.89h6.59l14.26,21.99h19.31l-15.6-24.07c.65-.27,1.31-.52,1.93-.84,3.76-1.94,6.66-4.62,8.7-8.03,2.04-3.41,3.06-7.25,3.06-11.52s-1.02-8.11-3.06-11.52c-2.04-3.41-4.94-6.09-8.7-8.03-3.76-1.94-8.13-2.92-13.1-2.92h-29.64v66.93h16.25v-21.99ZM780.03,15.3h13.39c1.59,0,3,.33,4.21,1,1.21.67,2.15,1.61,2.82,2.82.67,1.21,1,2.58,1,4.11s-.34,2.81-1,4.02c-.67,1.21-1.61,2.15-2.82,2.82-1.21.67-2.61,1-4.21,1h-13.39v-15.78Z"/>
        <polygon class="cls-1" points="877.55 63.04 864.07 .96 848.86 .96 847.81 .96 832.61 .96 832.61 67.88 848.86 67.88 848.86 5.8 862.35 67.88 877.55 67.88 878.6 67.88 893.8 67.88 893.8 .96 877.55 .96 877.55 63.04"/>
        <rect class="cls-1" x="909.1" y=".96" width="16.25" height="66.93"/>
        <path class="cls-1" d="M989.32,67.88h17.31L985.68.96h-28.87l-20.94,66.93h16.35l3.94-13.19h29.22l3.94,13.19ZM960.44,40.35l10.33-34.59,10.33,34.59h-20.65Z"/>
        <path class="cls-1" d="M548.55,68.84h34.66v-14.35h-30.52V.98h-15.37v56.63c0,6.19,5.04,11.23,11.23,11.23Z"/>
      </g>
      <g>
        <path class="cls-2" d="M114.48,56.04c0,11.56-3.37,22.31-9.1,31.45L39.6,21.71c-5.2-5.2-13.62-5.2-18.82,0-5.2,5.2-5.2,13.62,0,18.82l65.78,65.78c-9.13,5.73-19.89,9.1-31.45,9.1H0v26.62h55.11c47.42,0,85.99-38.58,85.99-85.99V.93h-26.62v55.11Z"/>
        <path class="cls-2" d="M237.77,115.41c-11.56,0-22.31-3.37-31.45-9.1l65.78-65.78c5.2-5.2,5.2-13.63,0-18.82-5.2-5.2-13.62-5.2-18.82,0l-65.78,65.78c-5.73-9.13-9.1-19.89-9.1-31.45V.93h-26.62v55.11c0,47.42,38.57,85.99,85.99,85.99h55.11v-26.62h-55.11Z"/>
        <path class="cls-2" d="M151.78,237.7v55.11h26.62v-55.11c0-11.55,3.37-22.31,9.1-31.45l65.78,65.78c2.6,2.6,6,3.9,9.41,3.9s6.81-1.3,9.41-3.9c5.2-5.2,5.2-13.62,0-18.82l-65.78-65.78c9.13-5.73,19.89-9.1,31.45-9.1h55.11v-26.62h-55.11c-47.42,0-85.99,38.57-85.99,85.99Z"/>
        <path class="cls-2" d="M55.11,151.71H0v26.62h55.11c11.56,0,22.31,3.37,31.45,9.1L20.78,253.21c-5.2,5.2-5.2,13.62,0,18.82,2.6,2.6,6,3.9,9.41,3.9s6.81-1.3,9.41-3.9l65.78-65.78c5.73,9.13,9.1,19.89,9.1,31.45v55.11h26.62v-55.11c0-47.42-38.57-85.99-85.99-85.99Z"/>
      </g>
    </g>
  </g>
</svg>